<?xml version="1.0" encoding="UTF-8" standalone="no"?><svg xmlns="http://www.w3.org/2000/svg" xmlns:xlink="http://www.w3.org/1999/xlink" contentScriptType="application/ecmascript" contentStyleType="text/css" height="1906px" preserveAspectRatio="none" style="width:639px;height:1906px;" version="1.1" viewBox="0 0 639 1906" width="639px" zoomAndPan="magnify"><defs><filter height="300%" id="f1lv4b4vsvq4yu" width="300%" x="-1" y="-1"><feGaussianBlur result="blurOut" stdDeviation="2.0"/><feColorMatrix in="blurOut" result="blurOut2" type="matrix" values="0 0 0 0 0 0 0 0 0 0 0 0 0 0 0 0 0 0 .4 0"/><feOffset dx="4.0" dy="4.0" in="blurOut2" result="blurOut3"/><feBlend in="SourceGraphic" in2="blurOut3" mode="normal"/></filter><linearGradient id="g1lv4b4vsvq4yu0" x1="50%" x2="50%" y1="0%" y2="100%"><stop offset="0%" stop-color="#ECEFF1"/><stop offset="100%" stop-color="#CFD8DC"/></linearGradient></defs><g><text fill="#263238" font-family="sans-serif" font-size="18" lengthAdjust="spacingAndGlyphs" textLength="186" x="225.5" y="26.708">WordPress Bootstrap</text><ellipse cx="244.125" cy="40.9531" fill="#263238" filter="url(#f1lv4b4vsvq4yu)" rx="10" ry="10" style="stroke: none; stroke-width: 1.0;"/><rect fill="#FFFFFF" filter="url(#f1lv4b4vsvq4yu)" height="154.5781" style="stroke: #000000; stroke-width: 2.0;" width="174" x="157.125" y="61.7549"/><path d="M235.125,62.7549 L235.125,71.0518 L225.125,81.0518 L157.125,81.0518 " fill="none" style="stroke: #000000; stroke-width: 2.0;"/><text fill="#000000" font-family="sans-serif" font-size="14" lengthAdjust="spacingAndGlyphs" textLength="68" x="160.125" y="75.75">index.php</text><rect fill="url(#g1lv4b4vsvq4yu0)" filter="url(#f1lv4b4vsvq4yu)" height="31.6406" rx="12.5" ry="12.5" style="stroke: #37474F; stroke-width: 1.5;" width="144" x="172.125" y="98.0518"/><text fill="#263238" font-family="sans-serif" font-size="10" lengthAdjust="spacingAndGlyphs" textLength="124" x="182.125" y="117.334">define WP_USE_THEMES</text><rect fill="url(#g1lv4b4vsvq4yu0)" filter="url(#f1lv4b4vsvq4yu)" height="31.6406" rx="12.5" ry="12.5" style="stroke: #37474F; stroke-width: 1.5;" width="154" x="167.125" y="164.6924"/><text fill="#263238" font-family="sans-serif" font-size="10" lengthAdjust="spacingAndGlyphs" textLength="134" x="177.125" y="183.9746">require wp-blog-header.php</text><rect fill="#FFFFFF" filter="url(#f1lv4b4vsvq4yu)" height="87.9375" style="stroke: #000000; stroke-width: 2.0;" width="160" x="164.125" y="227.1348"/><path d="M314.125,228.1348 L314.125,236.4316 L304.125,246.4316 L164.125,246.4316 " fill="none" style="stroke: #000000; stroke-width: 2.0;"/><text fill="#000000" font-family="sans-serif" font-size="14" lengthAdjust="spacingAndGlyphs" textLength="140" x="167.125" y="241.1299">wp-blog-header.php</text><rect fill="url(#g1lv4b4vsvq4yu0)" filter="url(#f1lv4b4vsvq4yu)" height="31.6406" rx="12.5" ry="12.5" style="stroke: #37474F; stroke-width: 1.5;" width="116" x="186.125" y="263.4316"/><text fill="#263238" font-family="sans-serif" font-size="10" lengthAdjust="spacingAndGlyphs" textLength="96" x="196.125" y="282.7139">require wp-load.php</text><rect fill="#FFFFFF" filter="url(#f1lv4b4vsvq4yu)" height="756.0625" style="stroke: #000000; stroke-width: 2.0;" width="618" x="10" y="325.874"/><path d="M105,326.874 L105,335.1709 L95,345.1709 L10,345.1709 " fill="none" style="stroke: #000000; stroke-width: 2.0;"/><text fill="#000000" font-family="sans-serif" font-size="14" lengthAdjust="spacingAndGlyphs" textLength="85" x="13" y="339.8691">wp-load.php</text><rect fill="url(#g1lv4b4vsvq4yu0)" filter="url(#f1lv4b4vsvq4yu)" height="31.6406" rx="12.5" ry="12.5" style="stroke: #37474F; stroke-width: 1.5;" width="101" x="193.625" y="362.1709"/><text fill="#263238" font-family="sans-serif" font-size="10" lengthAdjust="spacingAndGlyphs" textLength="81" x="203.625" y="381.4531">define ABSPATH</text><rect fill="url(#g1lv4b4vsvq4yu0)" filter="url(#f1lv4b4vsvq4yu)" height="31.6406" rx="12.5" ry="12.5" style="stroke: #37474F; stroke-width: 1.5;" width="93" x="197.625" y="428.8115"/><text fill="#263238" font-family="sans-serif" font-size="10" lengthAdjust="spacingAndGlyphs" textLength="73" x="207.625" y="448.0938">error_reporting</text><polygon fill="#FEFECE" filter="url(#f1lv4b4vsvq4yu)" points="182.625,495.4521,305.625,495.4521,317.625,507.4521,305.625,519.4521,182.625,519.4521,170.625,507.4521,182.625,495.4521" style="stroke: #A80036; stroke-width: 1.5;"/><text fill="#000000" font-family="sans-serif" font-size="11" lengthAdjust="spacingAndGlyphs" textLength="123" x="182.625" y="511.2603">wp-config.php exists?</text><text fill="#000000" font-family="sans-serif" font-size="11" lengthAdjust="spacingAndGlyphs" textLength="23" x="147.625" y="504.8579">true</text><text fill="#000000" font-family="sans-serif" font-size="11" lengthAdjust="spacingAndGlyphs" textLength="28" x="317.625" y="504.8579">false</text><rect fill="url(#g1lv4b4vsvq4yu0)" filter="url(#f1lv4b4vsvq4yu)" height="31.6406" rx="12.5" ry="12.5" style="stroke: #37474F; stroke-width: 1.5;" width="125" x="30" y="529.4521"/><text fill="#263238" font-family="sans-serif" font-size="10" lengthAdjust="spacingAndGlyphs" textLength="105" x="40" y="548.7344">require wp-config.php</text><rect fill="url(#g1lv4b4vsvq4yu0)" filter="url(#f1lv4b4vsvq4yu)" height="31.6406" rx="12.5" ry="12.5" style="stroke: #37474F; stroke-width: 1.5;" width="88" x="351.75" y="529.4521"/><text fill="#263238" font-family="sans-serif" font-size="10" lengthAdjust="spacingAndGlyphs" textLength="68" x="361.75" y="548.7344">define WPINC</text><rect fill="url(#g1lv4b4vsvq4yu0)" filter="url(#f1lv4b4vsvq4yu)" height="31.6406" rx="12.5" ry="12.5" style="stroke: #37474F; stroke-width: 1.5;" width="136" x="327.75" y="596.0928"/><text fill="#263238" font-family="sans-serif" font-size="10" lengthAdjust="spacingAndGlyphs" textLength="116" x="337.75" y="615.375">require WPINC/load.php</text><rect fill="url(#g1lv4b4vsvq4yu0)" filter="url(#f1lv4b4vsvq4yu)" height="31.6406" rx="12.5" ry="12.5" style="stroke: #37474F; stroke-width: 1.5;" width="121" x="335.25" y="662.7334"/><text fill="#263238" font-family="sans-serif" font-size="10" lengthAdjust="spacingAndGlyphs" textLength="101" x="345.25" y="682.0156">wp_fix_server_vars()</text><rect fill="url(#g1lv4b4vsvq4yu0)" filter="url(#f1lv4b4vsvq4yu)" height="31.6406" rx="12.5" ry="12.5" style="stroke: #37474F; stroke-width: 1.5;" width="160" x="315.75" y="729.374"/><text fill="#263238" font-family="sans-serif" font-size="10" lengthAdjust="spacingAndGlyphs" textLength="140" x="325.75" y="748.6563">require WPINC/functions.php</text><polygon fill="#FEFECE" filter="url(#f1lv4b4vsvq4yu)" points="332.75,796.0146,458.75,796.0146,470.75,808.0146,458.75,820.0146,332.75,820.0146,320.75,808.0146,332.75,796.0146" style="stroke: #A80036; stroke-width: 1.5;"/><text fill="#000000" font-family="sans-serif" font-size="11" lengthAdjust="spacingAndGlyphs" textLength="126" x="332.75" y="811.8228">not running in circles?</text><text fill="#000000" font-family="sans-serif" font-size="11" lengthAdjust="spacingAndGlyphs" textLength="23" x="297.75" y="805.4204">true</text><text fill="#000000" font-family="sans-serif" font-size="11" lengthAdjust="spacingAndGlyphs" textLength="28" x="470.75" y="805.4204">false</text><rect fill="url(#g1lv4b4vsvq4yu0)" filter="url(#f1lv4b4vsvq4yu)" height="31.6406" rx="12.5" ry="12.5" style="stroke: #37474F; stroke-width: 1.5;" width="205" x="185" y="830.0146"/><text fill="#263238" font-family="sans-serif" font-size="10" lengthAdjust="spacingAndGlyphs" textLength="185" x="195" y="849.2969">redirect to wp-admin/setup-config.php</text><ellipse cx="287.5" cy="906.6553" fill="#FFFFFF" filter="url(#f1lv4b4vsvq4yu)" rx="10" ry="10" style="stroke: #263238; stroke-width: 1.5;"/><line style="stroke: #263238; stroke-width: 2.5;" x1="281.3128" x2="293.6872" y1="900.4681" y2="912.8425"/><line style="stroke: #263238; stroke-width: 2.5;" x1="293.6872" x2="281.3128" y1="900.4681" y2="912.8425"/><rect fill="url(#g1lv4b4vsvq4yu0)" filter="url(#f1lv4b4vsvq4yu)" height="31.6406" rx="12.5" ry="12.5" style="stroke: #37474F; stroke-width: 1.5;" width="176" x="416" y="830.0146"/><text fill="#263238" font-family="sans-serif" font-size="10" lengthAdjust="spacingAndGlyphs" textLength="156" x="426" y="849.2969">wp_check_php_mysql_versions()</text><rect fill="url(#g1lv4b4vsvq4yu0)" filter="url(#f1lv4b4vsvq4yu)" height="31.6406" rx="12.5" ry="12.5" style="stroke: #37474F; stroke-width: 1.5;" width="157" x="425.5" y="896.6553"/><text fill="#263238" font-family="sans-serif" font-size="10" lengthAdjust="spacingAndGlyphs" textLength="137" x="435.5" y="915.9375">wp_load_translations_early()</text><rect fill="url(#g1lv4b4vsvq4yu0)" filter="url(#f1lv4b4vsvq4yu)" height="31.6406" rx="12.5" ry="12.5" style="stroke: #37474F; stroke-width: 1.5;" width="188" x="410" y="963.2959"/><text fill="#263238" font-family="sans-serif" font-size="10" lengthAdjust="spacingAndGlyphs" textLength="168" x="420" y="982.5781">show "Need more help?" message</text><ellipse cx="504" cy="1039.9365" fill="#FFFFFF" filter="url(#f1lv4b4vsvq4yu)" rx="10" ry="10" style="stroke: #263238; stroke-width: 1.5;"/><line style="stroke: #263238; stroke-width: 2.5;" x1="497.8128" x2="510.1872" y1="1033.7493" y2="1046.1237"/><line style="stroke: #263238; stroke-width: 2.5;" x1="510.1872" x2="497.8128" y1="1033.7493" y2="1046.1237"/><rect fill="#FFFFFF" filter="url(#f1lv4b4vsvq4yu)" height="154.5781" style="stroke: #000000; stroke-width: 2.0;" width="214" x="137.125" y="1092.7383"/><path d="M287.125,1093.7383 L287.125,1102.0352 L277.125,1112.0352 L137.125,1112.0352 " fill="none" style="stroke: #000000; stroke-width: 2.0;"/><text fill="#000000" font-family="sans-serif" font-size="14" lengthAdjust="spacingAndGlyphs" textLength="140" x="140.125" y="1106.7334">wp-blog-header.php</text><rect fill="url(#g1lv4b4vsvq4yu0)" filter="url(#f1lv4b4vsvq4yu)" height="31.6406" rx="12.5" ry="12.5" style="stroke: #37474F; stroke-width: 1.5;" width="42" x="223.125" y="1129.0352"/><text fill="#263238" font-family="sans-serif" font-size="10" lengthAdjust="spacingAndGlyphs" textLength="22" x="233.125" y="1148.3174">wp()</text><rect fill="url(#g1lv4b4vsvq4yu0)" filter="url(#f1lv4b4vsvq4yu)" height="31.6406" rx="12.5" ry="12.5" style="stroke: #37474F; stroke-width: 1.5;" width="194" x="147.125" y="1195.6758"/><text fill="#263238" font-family="sans-serif" font-size="10" lengthAdjust="spacingAndGlyphs" textLength="174" x="157.125" y="1214.958">require WPINC/template-loader.php</text><rect fill="#FFFFFF" filter="url(#f1lv4b4vsvq4yu)" height="596.9922" style="stroke: #000000; stroke-width: 2.0;" width="464" x="12.125" y="1258.1182"/><path d="M212.125,1259.1182 L212.125,1267.415 L202.125,1277.415 L12.125,1277.415 " fill="none" style="stroke: #000000; stroke-width: 2.0;"/><text fill="#000000" font-family="sans-serif" font-size="14" lengthAdjust="spacingAndGlyphs" textLength="190" x="15.125" y="1272.1133">WPINC/template-loader.php</text><rect fill="url(#g1lv4b4vsvq4yu0)" filter="url(#f1lv4b4vsvq4yu)" height="31.6406" rx="12.5" ry="12.5" style="stroke: #37474F; stroke-width: 1.5;" width="172" x="158.125" y="1342.8174"/><text fill="#263238" font-family="sans-serif" font-size="10" lengthAdjust="spacingAndGlyphs" textLength="152" x="168.125" y="1362.0996">do_action( 'template_redirect' )</text><polygon fill="#FEFECE" filter="url(#f1lv4b4vsvq4yu)" points="192.625,1294.415,295.625,1294.415,307.625,1306.415,295.625,1318.415,192.625,1318.415,180.625,1306.415,192.625,1294.415" style="stroke: #A80036; stroke-width: 1.5;"/><text fill="#000000" font-family="sans-serif" font-size="11" lengthAdjust="spacingAndGlyphs" textLength="23" x="248.125" y="1328.6255">true</text><text fill="#000000" font-family="sans-serif" font-size="11" lengthAdjust="spacingAndGlyphs" textLength="103" x="192.625" y="1310.2231">WP_USE_THEMES?</text><polygon fill="#FEFECE" filter="url(#f1lv4b4vsvq4yu)" points="244.125,1398.8604,256.125,1410.8604,244.125,1422.8604,232.125,1410.8604,244.125,1398.8604" style="stroke: #A80036; stroke-width: 1.5;"/><ellipse cx="244.125" cy="1516.2627" fill="#FFFFFF" filter="url(#f1lv4b4vsvq4yu)" rx="10" ry="10" style="stroke: #263238; stroke-width: 1.5;"/><line style="stroke: #263238; stroke-width: 2.5;" x1="237.9378" x2="250.3122" y1="1510.0755" y2="1522.4499"/><line style="stroke: #263238; stroke-width: 2.5;" x1="250.3122" x2="237.9378" y1="1510.0755" y2="1522.4499"/><polygon fill="#FEFECE" filter="url(#f1lv4b4vsvq4yu)" points="135.625,1457.8604,352.625,1457.8604,364.625,1469.8604,352.625,1481.8604,135.625,1481.8604,123.625,1469.8604,135.625,1457.8604" style="stroke: #A80036; stroke-width: 1.5;"/><text fill="#000000" font-family="sans-serif" font-size="11" lengthAdjust="spacingAndGlyphs" textLength="23" x="248.125" y="1492.0708">true</text><text fill="#000000" font-family="sans-serif" font-size="11" lengthAdjust="spacingAndGlyphs" textLength="217" x="135.625" y="1473.6685">HEAD request AND exit_on_http_head?</text><polygon fill="#FEFECE" filter="url(#f1lv4b4vsvq4yu)" points="55.625,1616.665,122.625,1616.665,134.625,1628.665,122.625,1640.665,55.625,1640.665,43.625,1628.665,55.625,1616.665" style="stroke: #A80036; stroke-width: 1.5;"/><text fill="#000000" font-family="sans-serif" font-size="11" lengthAdjust="spacingAndGlyphs" textLength="23" x="93.125" y="1650.8755">true</text><text fill="#000000" font-family="sans-serif" font-size="11" lengthAdjust="spacingAndGlyphs" textLength="67" x="55.625" y="1632.4731">is_robots()?</text><rect fill="url(#g1lv4b4vsvq4yu0)" filter="url(#f1lv4b4vsvq4yu)" height="31.6406" rx="12.5" ry="12.5" style="stroke: #37474F; stroke-width: 1.5;" width="134" x="22.125" y="1673.4697"/><text fill="#263238" font-family="sans-serif" font-size="10" lengthAdjust="spacingAndGlyphs" textLength="114" x="32.125" y="1692.752">do_action( 'do_robots' )</text><ellipse cx="89.125" cy="1750.1104" fill="#FFFFFF" filter="url(#f1lv4b4vsvq4yu)" rx="10" ry="10" style="stroke: #263238; stroke-width: 1.5;"/><line style="stroke: #263238; stroke-width: 2.5;" x1="82.9378" x2="95.3122" y1="1743.9232" y2="1756.2975"/><line style="stroke: #263238; stroke-width: 2.5;" x1="95.3122" x2="82.9378" y1="1743.9232" y2="1756.2975"/><polygon fill="#FEFECE" filter="url(#f1lv4b4vsvq4yu)" points="188.125,1616.665,243.125,1616.665,255.125,1628.665,243.125,1640.665,188.125,1640.665,176.125,1628.665,188.125,1616.665" style="stroke: #A80036; stroke-width: 1.5;"/><text fill="#000000" font-family="sans-serif" font-size="11" lengthAdjust="spacingAndGlyphs" textLength="23" x="219.625" y="1650.8755">true</text><text fill="#000000" font-family="sans-serif" font-size="11" lengthAdjust="spacingAndGlyphs" textLength="55" x="188.125" y="1632.4731">is_feed()?</text><rect fill="url(#g1lv4b4vsvq4yu0)" filter="url(#f1lv4b4vsvq4yu)" height="31.6406" rx="12.5" ry="12.5" style="stroke: #37474F; stroke-width: 1.5;" width="67" x="182.125" y="1673.4697"/><text fill="#263238" font-family="sans-serif" font-size="10" lengthAdjust="spacingAndGlyphs" textLength="47" x="192.125" y="1692.752">do_feed()</text><ellipse cx="215.625" cy="1750.1104" fill="#FFFFFF" filter="url(#f1lv4b4vsvq4yu)" rx="10" ry="10" style="stroke: #263238; stroke-width: 1.5;"/><line style="stroke: #263238; stroke-width: 2.5;" x1="209.4378" x2="221.8122" y1="1743.9232" y2="1756.2975"/><line style="stroke: #263238; stroke-width: 2.5;" x1="221.8122" x2="209.4378" y1="1743.9232" y2="1756.2975"/><polygon fill="#FEFECE" filter="url(#f1lv4b4vsvq4yu)" points="303.625,1616.665,387.625,1616.665,399.625,1628.665,387.625,1640.665,303.625,1640.665,291.625,1628.665,303.625,1616.665" style="stroke: #A80036; stroke-width: 1.5;"/><text fill="#000000" font-family="sans-serif" font-size="11" lengthAdjust="spacingAndGlyphs" textLength="23" x="349.625" y="1650.8755">true</text><text fill="#000000" font-family="sans-serif" font-size="11" lengthAdjust="spacingAndGlyphs" textLength="84" x="303.625" y="1632.4731">is_trackback()?</text><rect fill="url(#g1lv4b4vsvq4yu0)" filter="url(#f1lv4b4vsvq4yu)" height="31.6406" rx="12.5" ry="12.5" style="stroke: #37474F; stroke-width: 1.5;" width="141" x="275.125" y="1673.4697"/><text fill="#263238" font-family="sans-serif" font-size="10" lengthAdjust="spacingAndGlyphs" textLength="121" x="285.125" y="1692.752">include wp-trackback.php</text><ellipse cx="345.625" cy="1750.1104" fill="#FFFFFF" filter="url(#f1lv4b4vsvq4yu)" rx="10" ry="10" style="stroke: #263238; stroke-width: 1.5;"/><line style="stroke: #263238; stroke-width: 2.5;" x1="339.4378" x2="351.8122" y1="1743.9232" y2="1756.2975"/><line style="stroke: #263238; stroke-width: 2.5;" x1="351.8122" x2="339.4378" y1="1743.9232" y2="1756.2975"/><ellipse cx="244.125" cy="1885.1104" fill="none" filter="url(#f1lv4b4vsvq4yu)" rx="10" ry="10" style="stroke: #263238; stroke-width: 1.0;"/><ellipse cx="244.625" cy="1885.6104" fill="#263238" filter="url(#f1lv4b4vsvq4yu)" rx="6" ry="6" style="stroke: none; stroke-width: 1.0;"/><line style="stroke: #37474F; stroke-width: 1.5;" x1="244.125" x2="244.125" y1="129.6924" y2="164.6924"/><polygon fill="#37474F" points="240.125,154.6924,244.125,164.6924,248.125,154.6924,244.125,158.6924" style="stroke: #37474F; stroke-width: 1.0;"/><line style="stroke: #37474F; stroke-width: 1.5;" x1="244.125" x2="244.125" y1="50.9531" y2="98.0518"/><polygon fill="#37474F" points="240.125,88.0518,244.125,98.0518,248.125,88.0518,244.125,92.0518" style="stroke: #37474F; stroke-width: 1.0;"/><line style="stroke: #37474F; stroke-width: 1.5;" x1="244.125" x2="244.125" y1="196.333" y2="263.4316"/><polygon fill="#37474F" points="240.125,253.4316,244.125,263.4316,248.125,253.4316,244.125,257.4316" style="stroke: #37474F; stroke-width: 1.0;"/><line style="stroke: #37474F; stroke-width: 1.5;" x1="244.125" x2="244.125" y1="393.8115" y2="428.8115"/><polygon fill="#37474F" points="240.125,418.8115,244.125,428.8115,248.125,418.8115,244.125,422.8115" style="stroke: #37474F; stroke-width: 1.0;"/><line style="stroke: #37474F; stroke-width: 1.5;" x1="395.75" x2="395.75" y1="561.0928" y2="596.0928"/><polygon fill="#37474F" points="391.75,586.0928,395.75,596.0928,399.75,586.0928,395.75,590.0928" style="stroke: #37474F; stroke-width: 1.0;"/><line style="stroke: #37474F; stroke-width: 1.5;" x1="395.75" x2="395.75" y1="627.7334" y2="662.7334"/><polygon fill="#37474F" points="391.75,652.7334,395.75,662.7334,399.75,652.7334,395.75,656.7334" style="stroke: #37474F; stroke-width: 1.0;"/><line style="stroke: #37474F; stroke-width: 1.5;" x1="395.75" x2="395.75" y1="694.374" y2="729.374"/><polygon fill="#37474F" points="391.75,719.374,395.75,729.374,399.75,719.374,395.75,723.374" style="stroke: #37474F; stroke-width: 1.0;"/><line style="stroke: #37474F; stroke-width: 1.5;" x1="287.5" x2="287.5" y1="861.6553" y2="896.6553"/><polygon fill="#37474F" points="283.5,886.6553,287.5,896.6553,291.5,886.6553,287.5,890.6553" style="stroke: #37474F; stroke-width: 1.0;"/><line style="stroke: #37474F; stroke-width: 1.5;" x1="504" x2="504" y1="861.6553" y2="896.6553"/><polygon fill="#37474F" points="500,886.6553,504,896.6553,508,886.6553,504,890.6553" style="stroke: #37474F; stroke-width: 1.0;"/><line style="stroke: #37474F; stroke-width: 1.5;" x1="504" x2="504" y1="928.2959" y2="963.2959"/><polygon fill="#37474F" points="500,953.2959,504,963.2959,508,953.2959,504,957.2959" style="stroke: #37474F; stroke-width: 1.0;"/><line style="stroke: #37474F; stroke-width: 1.5;" x1="504" x2="504" y1="994.9365" y2="1029.9365"/><polygon fill="#37474F" points="500,1019.9365,504,1029.9365,508,1019.9365,504,1023.9365" style="stroke: #37474F; stroke-width: 1.0;"/><line style="stroke: #37474F; stroke-width: 1.5;" x1="320.75" x2="287.5" y1="808.0146" y2="808.0146"/><line style="stroke: #37474F; stroke-width: 1.5;" x1="287.5" x2="287.5" y1="808.0146" y2="830.0146"/><polygon fill="#37474F" points="283.5,820.0146,287.5,830.0146,291.5,820.0146,287.5,824.0146" style="stroke: #37474F; stroke-width: 1.0;"/><line style="stroke: #37474F; stroke-width: 1.5;" x1="470.75" x2="504" y1="808.0146" y2="808.0146"/><line style="stroke: #37474F; stroke-width: 1.5;" x1="504" x2="504" y1="808.0146" y2="830.0146"/><polygon fill="#37474F" points="500,820.0146,504,830.0146,508,820.0146,504,824.0146" style="stroke: #37474F; stroke-width: 1.0;"/><line style="stroke: #37474F; stroke-width: 1.5;" x1="395.75" x2="395.75" y1="761.0146" y2="796.0146"/><polygon fill="#37474F" points="391.75,786.0146,395.75,796.0146,399.75,786.0146,395.75,790.0146" style="stroke: #37474F; stroke-width: 1.0;"/><line style="stroke: #37474F; stroke-width: 1.5;" x1="170.625" x2="92.5" y1="507.4521" y2="507.4521"/><line style="stroke: #37474F; stroke-width: 1.5;" x1="92.5" x2="92.5" y1="507.4521" y2="529.4521"/><polygon fill="#37474F" points="88.5,519.4521,92.5,529.4521,96.5,519.4521,92.5,523.4521" style="stroke: #37474F; stroke-width: 1.0;"/><line style="stroke: #37474F; stroke-width: 1.5;" x1="317.625" x2="395.75" y1="507.4521" y2="507.4521"/><line style="stroke: #37474F; stroke-width: 1.5;" x1="395.75" x2="395.75" y1="507.4521" y2="529.4521"/><polygon fill="#37474F" points="391.75,519.4521,395.75,529.4521,399.75,519.4521,395.75,523.4521" style="stroke: #37474F; stroke-width: 1.0;"/><line style="stroke: #37474F; stroke-width: 1.5;" x1="92.5" x2="92.5" y1="561.0928" y2="1061.9365"/><line style="stroke: #37474F; stroke-width: 1.5;" x1="92.5" x2="244.125" y1="1061.9365" y2="1061.9365"/><line style="stroke: #37474F; stroke-width: 1.5;" x1="244.125" x2="244.125" y1="1061.9365" y2="1129.0352"/><polygon fill="#37474F" points="240.125,1119.0352,244.125,1129.0352,248.125,1119.0352,244.125,1123.0352" style="stroke: #37474F; stroke-width: 1.0;"/><line style="stroke: #37474F; stroke-width: 1.5;" x1="244.125" x2="244.125" y1="460.4521" y2="495.4521"/><polygon fill="#37474F" points="240.125,485.4521,244.125,495.4521,248.125,485.4521,244.125,489.4521" style="stroke: #37474F; stroke-width: 1.0;"/><line style="stroke: #37474F; stroke-width: 1.5;" x1="244.125" x2="244.125" y1="295.0723" y2="362.1709"/><polygon fill="#37474F" points="240.125,352.1709,244.125,362.1709,248.125,352.1709,244.125,356.1709" style="stroke: #37474F; stroke-width: 1.0;"/><line style="stroke: #37474F; stroke-width: 1.5;" x1="244.125" x2="244.125" y1="1160.6758" y2="1195.6758"/><polygon fill="#37474F" points="240.125,1185.6758,244.125,1195.6758,248.125,1185.6758,244.125,1189.6758" style="stroke: #37474F; stroke-width: 1.0;"/><line style="stroke: #37474F; stroke-width: 1.5;" x1="244.125" x2="244.125" y1="1318.415" y2="1342.8174"/><polygon fill="#37474F" points="240.125,1332.8174,244.125,1342.8174,248.125,1332.8174,244.125,1336.8174" style="stroke: #37474F; stroke-width: 1.0;"/><line style="stroke: #37474F; stroke-width: 1.5;" x1="307.625" x2="340.125" y1="1306.415" y2="1306.415"/><polygon fill="#37474F" points="336.125,1348.6377,340.125,1358.6377,344.125,1348.6377,340.125,1352.6377" style="stroke: #37474F; stroke-width: 1.5;"/><line style="stroke: #37474F; stroke-width: 1.5;" x1="340.125" x2="340.125" y1="1306.415" y2="1410.8604"/><line style="stroke: #37474F; stroke-width: 1.5;" x1="340.125" x2="256.125" y1="1410.8604" y2="1410.8604"/><polygon fill="#37474F" points="266.125,1406.8604,256.125,1410.8604,266.125,1414.8604,262.125,1410.8604" style="stroke: #37474F; stroke-width: 1.0;"/><line style="stroke: #37474F; stroke-width: 1.5;" x1="244.125" x2="244.125" y1="1374.458" y2="1398.8604"/><polygon fill="#37474F" points="240.125,1388.8604,244.125,1398.8604,248.125,1388.8604,244.125,1392.8604" style="stroke: #37474F; stroke-width: 1.0;"/><line style="stroke: #37474F; stroke-width: 1.5;" x1="244.125" x2="244.125" y1="1481.8604" y2="1506.2627"/><polygon fill="#37474F" points="240.125,1496.2627,244.125,1506.2627,248.125,1496.2627,244.125,1500.2627" style="stroke: #37474F; stroke-width: 1.0;"/><line style="stroke: #37474F; stroke-width: 1.5;" x1="364.625" x2="376.625" y1="1469.8604" y2="1469.8604"/><polygon fill="#37474F" points="372.625,1503.2627,376.625,1513.2627,380.625,1503.2627,376.625,1507.2627" style="stroke: #37474F; stroke-width: 1.5;"/><line style="stroke: #37474F; stroke-width: 1.5;" x1="376.625" x2="376.625" y1="1469.8604" y2="1556.665"/><line style="stroke: #37474F; stroke-width: 1.5;" x1="376.625" x2="244.125" y1="1556.665" y2="1556.665"/><line style="stroke: #37474F; stroke-width: 1.5;" x1="244.125" x2="244.125" y1="1556.665" y2="1591.665"/><line style="stroke: #37474F; stroke-width: 1.5;" x1="244.125" x2="244.125" y1="1422.8604" y2="1457.8604"/><polygon fill="#37474F" points="240.125,1447.8604,244.125,1457.8604,248.125,1447.8604,244.125,1451.8604" style="stroke: #37474F; stroke-width: 1.0;"/><line style="stroke: #37474F; stroke-width: 1.5;" x1="89.125" x2="89.125" y1="1705.1104" y2="1740.1104"/><polygon fill="#37474F" points="85.125,1730.1104,89.125,1740.1104,93.125,1730.1104,89.125,1734.1104" style="stroke: #37474F; stroke-width: 1.0;"/><line style="stroke: #37474F; stroke-width: 1.5;" x1="215.625" x2="215.625" y1="1705.1104" y2="1740.1104"/><polygon fill="#37474F" points="211.625,1730.1104,215.625,1740.1104,219.625,1730.1104,215.625,1734.1104" style="stroke: #37474F; stroke-width: 1.0;"/><line style="stroke: #37474F; stroke-width: 1.5;" x1="345.625" x2="345.625" y1="1705.1104" y2="1740.1104"/><polygon fill="#37474F" points="341.625,1730.1104,345.625,1740.1104,349.625,1730.1104,345.625,1734.1104" style="stroke: #37474F; stroke-width: 1.0;"/><line style="stroke: #37474F; stroke-width: 1.5;" x1="89.125" x2="89.125" y1="1640.665" y2="1673.4697"/><polygon fill="#37474F" points="85.125,1663.4697,89.125,1673.4697,93.125,1663.4697,89.125,1667.4697" style="stroke: #37474F; stroke-width: 1.0;"/><line style="stroke: #37474F; stroke-width: 1.5;" x1="215.625" x2="215.625" y1="1640.665" y2="1673.4697"/><polygon fill="#37474F" points="211.625,1663.4697,215.625,1673.4697,219.625,1663.4697,215.625,1667.4697" style="stroke: #37474F; stroke-width: 1.0;"/><line style="stroke: #37474F; stroke-width: 1.5;" x1="345.625" x2="345.625" y1="1640.665" y2="1673.4697"/><polygon fill="#37474F" points="341.625,1663.4697,345.625,1673.4697,349.625,1663.4697,345.625,1667.4697" style="stroke: #37474F; stroke-width: 1.0;"/><line style="stroke: #37474F; stroke-width: 1.5;" x1="134.625" x2="176.125" y1="1628.665" y2="1628.665"/><polygon fill="#37474F" points="166.125,1624.665,176.125,1628.665,166.125,1632.665,170.125,1628.665" style="stroke: #37474F; stroke-width: 1.0;"/><line style="stroke: #37474F; stroke-width: 1.5;" x1="255.125" x2="291.625" y1="1628.665" y2="1628.665"/><polygon fill="#37474F" points="281.625,1624.665,291.625,1628.665,281.625,1632.665,285.625,1628.665" style="stroke: #37474F; stroke-width: 1.0;"/><line style="stroke: #37474F; stroke-width: 1.5;" x1="244.125" x2="89.125" y1="1591.665" y2="1591.665"/><line style="stroke: #37474F; stroke-width: 1.5;" x1="89.125" x2="89.125" y1="1591.665" y2="1616.665"/><polygon fill="#37474F" points="85.125,1606.665,89.125,1616.665,93.125,1606.665,89.125,1610.665" style="stroke: #37474F; stroke-width: 1.0;"/><line style="stroke: #37474F; stroke-width: 1.5;" x1="399.625" x2="451.125" y1="1628.665" y2="1628.665"/><line style="stroke: #37474F; stroke-width: 1.5;" x1="451.125" x2="451.125" y1="1628.665" y2="1835.1104"/><polygon fill="#37474F" points="447.125,1825.1104,451.125,1835.1104,455.125,1825.1104,451.125,1829.1104" style="stroke: #37474F; stroke-width: 1.0;"/><line style="stroke: #37474F; stroke-width: 1.5;" x1="244.125" x2="451.125" y1="1835.1104" y2="1835.1104"/><line style="stroke: #37474F; stroke-width: 1.5;" x1="244.125" x2="244.125" y1="1227.3164" y2="1294.415"/><polygon fill="#37474F" points="240.125,1284.415,244.125,1294.415,248.125,1284.415,244.125,1288.415" style="stroke: #37474F; stroke-width: 1.0;"/><line style="stroke: #37474F; stroke-width: 1.5;" x1="244.125" x2="244.125" y1="1835.1104" y2="1875.1104"/><polygon fill="#37474F" points="240.125,1865.1104,244.125,1875.1104,248.125,1865.1104,244.125,1869.1104" style="stroke: #37474F; stroke-width: 1.0;"/><!--
@startuml
title WordPress Bootstrap

skinparam title {
  FontColor #263238
}

skinparam class {
  BackgroundColor #ECEFF1-#CFD8DC
  BorderColor #37474F
  ArrowColor #37474F
  FontColor #263238
  FontStyle bold
  FontSize 11
  Attribute {
    FontColor #263238
  }
}

skinparam activity {
  BackgroundColor #ECEFF1-#CFD8DC
  BorderColor #37474F
  ArrowColor #37474F
  StartColor #263238
  EndColor #263238
  BarColor #263238
  FontColor #263238
  FontStyle plain
  FontSize 10
}

skinparam circledCharacter {
  FontColor #263238
  FontSize 10
  FontName Helvetica
  Radius 7
}

skinparam package {
  BackgroundColor #FFFFFF-#ECEFF1
  BorderColor #37474F
  FontColor #263238
}

skinparam note {
  BackgroundColor #FFECB3-#FFE082
  BorderColor #FF6F00
  FontColor #3E2723
  FontSize 11
}

start

partition index.php {
  :define WP_USE_THEMES;
  :require wp-blog-header.php;
}

partition wp-blog-header.php {
  :require wp-load.php;
}

partition wp-load.php {
  :define ABSPATH;
  :error_reporting;
  if (wp-config.php exists?) then (true)
    :require wp-config.php;
  else (false)
    :define WPINC;
    :require WPINC/load.php;
    :wp_fix_server_vars();
    :require WPINC/functions.php;
    if (not running in circles?) then (true)
      :redirect to wp-admin/setup-config.php;
      end
    else (false)
      :wp_check_php_mysql_versions();
      :wp_load_translations_early();
      :show "Need more help?" message;
      end
    endif
  endif
}

partition wp-blog-header.php {
  :wp();
  :require WPINC/template-loader.php;
}

partition WPINC/template-loader.php {
  if (WP_USE_THEMES?) then (true)
    :do_action( 'template_redirect' );
  endif
  if (HEAD request AND exit_on_http_head?) then (true)
    end
  endif
  if (is_robots()?) then (true)
    :do_action( 'do_robots' );
    end
  elseif (is_feed()?) then (true)
    :do_feed();
    end
  elseif (is_trackback()?) then (true)
    :include wp-trackback.php;
    end
  endif
}

stop
@enduml

PlantUML version 1.2017.14(Mon Jun 05 09:56:32 UTC 2017)
(GPL source distribution)
Java Runtime: Java(TM) SE Runtime Environment
JVM: Java HotSpot(TM) 64-Bit Server VM
Java Version: 1.7.0_25-b15
Operating System: Linux
Default Encoding: UTF-8
Language: en
Country: US
--></g></svg>