<?xml version="1.0" encoding="utf-8"?>
<!-- Generator: Adobe Illustrator 19.0.0, SVG Export Plug-In . SVG Version: 6.00 Build 0)  -->
<svg version="1.1" id="Layer_1" xmlns="http://www.w3.org/2000/svg" xmlns:xlink="http://www.w3.org/1999/xlink" x="0px" y="0px"
	 viewBox="-210 88.3 420 438.3" style="enable-background:new -210 88.3 420 438.3;" xml:space="preserve">
<style type="text/css">
	.st0{opacity:0.2;}
	.st1{fill:#333333;}
	.st2{fill:#E37E32;}
	.st3{fill:#96A3A3;}
	.st4{fill:#55A7E8;}
	.st5{opacity:0.4;}
	.st6{fill:#FFFFFF;}
	.st7{fill:#CEDDDD;}
	.st8{opacity:0.4;clip-path:url(#SVGID_2_);}
</style>
<g id="XMLID_75_" class="st0">
	<g id="XMLID_74_">
		<path class="st1" d="M198.5,220.8h-390c-2.8,0-5-2.2-5-5v-30c0-2.8,2.2-5,5-5h390c2.8,0,5,2.2,5,5v30
			C203.5,218.6,201.3,220.8,198.5,220.8z"/>
	</g>
	<g id="XMLID_73_">
		<path class="st1" d="M48.5,370.8h-240c-2.8,0-5-2.2-5-5v-130c0-2.8,2.2-5,5-5h240c2.8,0,5,2.2,5,5v130
			C53.5,368.6,51.3,370.8,48.5,370.8z"/>
	</g>
	<g id="XMLID_72_">
		<path class="st1" d="M198.5,270.8h-130c-2.8,0-5-2.2-5-5v-30c0-2.8,2.2-5,5-5h130c2.8,0,5,2.2,5,5v30
			C203.5,268.6,201.3,270.8,198.5,270.8z"/>
	</g>
	<g id="XMLID_71_">
		<path class="st1" d="M198.5,320.8h-130c-2.8,0-5-2.2-5-5v-30c0-2.8,2.2-5,5-5h130c2.8,0,5,2.2,5,5v30
			C203.5,318.6,201.3,320.8,198.5,320.8z"/>
	</g>
	<g id="XMLID_70_">
		<path class="st1" d="M198.5,370.8h-130c-2.8,0-5-2.2-5-5v-30c0-2.8,2.2-5,5-5h130c2.8,0,5,2.2,5,5v30
			C203.5,368.6,201.3,370.8,198.5,370.8z"/>
	</g>
	<g id="XMLID_15_">
		<path class="st1" d="M198.5,420.8h-390c-2.8,0-5-2.2-5-5v-30c0-2.8,2.2-5,5-5h390c2.8,0,5,2.2,5,5v30
			C203.5,418.6,201.3,420.8,198.5,420.8z"/>
	</g>
</g>
<g id="XMLID_1_">
	<path id="XMLID_216_" class="st1" d="M-67.9,114.2h-3.7v-7.5h-8.3v7.5h-3.6v-18h3.6v7.6h8.3v-7.6h3.7V114.2z"/>
	<path id="XMLID_218_" class="st1" d="M-65.2,96.2h14.3v3.2h-5.4v14.8h-3.6V99.4h-5.3V96.2z"/>
	<path id="XMLID_220_" class="st1" d="M-49.4,96.2h14.3v3.2h-5.4v14.8h-3.6V99.4h-5.3V96.2z"/>
	<path id="XMLID_222_" class="st1" d="M-17.7,102.2c0,3.8-2.8,6.1-6.9,6.1h-4v5.8h-3.6v-18h7.7C-20.5,96.2-17.7,98.6-17.7,102.2z
		 M-24.8,99.4h-3.8v5.8h3.8c2,0,3.4-0.9,3.4-2.9C-21.5,100.3-22.9,99.4-24.8,99.4z"/>
	<path id="XMLID_225_" class="st1" d="M-1.8,96.2c4.2,0,6.9,2.4,6.9,6c0,2.6-1.4,4.6-3.6,5.5v0.2l4.2,5.9v0.4H1.6l-4-5.9h-3.4v5.9
		h-3.6v-18C-9.4,96.2-1.8,96.2-1.8,96.2z M-2,99.4h-3.8v5.8h3.9c1.9,0,3.3-1,3.3-2.9C1.3,100.3-0.1,99.4-2,99.4z"/>
	<path id="XMLID_228_" class="st1" d="M18.3,113c0,0-1.5,1.5-4.7,1.5c-4.2,0-6.8-2.8-6.8-6.7c0-3.8,2.5-6.6,6.2-6.6s5.9,2.5,5.9,6.3
		c0,0.4,0,1,0,1h-8.6c0.2,2.2,1.5,3.1,3.5,3.1s3.2-1.1,3.2-1.1L18.3,113z M10.4,106.4h5c-0.1-1.5-1-2.4-2.5-2.4
		C11.6,104,10.7,104.8,10.4,106.4z"/>
	<path id="XMLID_231_" class="st1" d="M33.7,118.9h-3.6v-6.1h-0.2c0,0-0.8,1.7-3.6,1.7c-3.3,0-5.8-2.7-5.8-6.6c0-4,2.5-6.6,5.9-6.6
		c3.2,0,4.2,2.2,4.2,2.2h0.1l0.6-1.9h2.3v17.3H33.7z M27.2,104.3c-1.7,0-3,1.5-3,3.7c0,2.2,1.2,3.6,3,3.6s3.1-1.4,3.1-3.6
		C30.3,105.7,29,104.3,27.2,104.3z"/>
	<path id="XMLID_234_" class="st1" d="M45.4,101.6H49v12.6h-2.4l-0.6-1.7h-0.2c-0.6,0.9-1.7,2-3.9,2c-3.2,0-5.2-2.2-5.2-5.6v-7.3
		h3.6v7c0,1.6,0.8,2.8,2.4,2.8c1.7,0,2.6-1.4,2.6-2.6L45.4,101.6L45.4,101.6z"/>
	<path id="XMLID_236_" class="st1" d="M63.1,113c0,0-1.5,1.5-4.7,1.5c-4.2,0-6.8-2.8-6.8-6.7c0-3.8,2.5-6.6,6.2-6.6s5.9,2.5,5.9,6.3
		c0,0.4,0,1,0,1H55c0.2,2.2,1.5,3.1,3.5,3.1s3.2-1.1,3.2-1.1L63.1,113z M55.1,106.4h5c-0.1-1.5-1-2.4-2.5-2.4
		C56.4,104,55.4,104.8,55.1,106.4z"/>
	<path id="XMLID_239_" class="st1" d="M66.5,110.6c0,0,1.9,1.2,4.1,1.2c1.4,0,1.9-0.5,1.9-1.1c0-2-7-0.8-7-5.6c0-2.2,1.7-3.8,5-3.8
		c3.6,0,5.5,1.1,5.5,1.1l-1.1,2.7c0,0-1.7-1.1-4-1.1c-1.2,0-1.8,0.3-1.8,1c0,2,7.2,0.6,7.2,5.5c0,2.2-1.6,3.9-5.5,3.9
		c-3.8,0-5.5-1.4-5.5-1.4L66.5,110.6z"/>
	<path id="XMLID_241_" class="st1" d="M79.8,101.6v-3.8h3.6v3.8h3.1v2.8h-3.1v5.6c0,0.9,0.4,1.4,1.4,1.4c0.7,0,1.3-0.4,1.3-0.4
		l1,2.5c-0.5,0.4-1.8,1-3.2,1c-2.9,0-4.1-1.8-4.1-4.3v-5.8h-2.2v-2.8C77.6,101.6,79.8,101.6,79.8,101.6z"/>
</g>
<g id="XMLID_83_">
	<g id="XMLID_3_">
		<path class="st2" d="M195.9,218.3h-390c-2.8,0-5-2.2-5-5v-30c0-2.8,2.2-5,5-5h390c2.8,0,5,2.2,5,5v30
			C200.9,216.1,198.7,218.3,195.9,218.3z"/>
	</g>
	<g id="XMLID_5_">
		<path class="st3" d="M45.9,368.3h-240c-2.8,0-5-2.2-5-5v-130c0-2.8,2.2-5,5-5h240c2.8,0,5,2.2,5,5v130
			C50.9,366.1,48.7,368.3,45.9,368.3z"/>
	</g>
	<g id="XMLID_6_">
		<path class="st4" d="M195.9,268.3h-130c-2.8,0-5-2.2-5-5v-30c0-2.8,2.2-5,5-5h130c2.8,0,5,2.2,5,5v30
			C200.9,266.1,198.7,268.3,195.9,268.3z"/>
	</g>
	<g id="XMLID_7_">
		<path class="st4" d="M195.9,318.3h-130c-2.8,0-5-2.2-5-5v-30c0-2.8,2.2-5,5-5h130c2.8,0,5,2.2,5,5v30
			C200.9,316.1,198.7,318.3,195.9,318.3z"/>
	</g>
	<g id="XMLID_8_">
		<path class="st4" d="M195.9,368.3h-130c-2.8,0-5-2.2-5-5v-30c0-2.8,2.2-5,5-5h130c2.8,0,5,2.2,5,5v30
			C200.9,366.1,198.7,368.3,195.9,368.3z"/>
	</g>
	<g id="XMLID_13_">
		<path class="st4" d="M195.9,418.3h-390c-2.8,0-5-2.2-5-5v-30c0-2.8,2.2-5,5-5h390c2.8,0,5,2.2,5,5v30
			C200.9,416.1,198.7,418.3,195.9,418.3z"/>
	</g>
	<g id="XMLID_243_" class="st5">
		<g id="XMLID_319_">
			<path id="XMLID_340_" class="st6" d="M-47.6,207.3h-8.3v-18h8.1c4.1,0,6.2,1.8,6.2,4.9c0,1.6-0.9,3-2.3,3.8v0.2
				c1.8,0.5,2.8,2,2.8,3.9C-41.1,205.4-43.5,207.3-47.6,207.3z M-47.9,192.5h-4.4v4.3h4.4c1.5,0,2.5-0.9,2.5-2.1
				C-45.4,193.3-46.3,192.5-47.9,192.5z M-52.3,199.6v4.5h4.7c1.5,0,2.6-0.9,2.6-2.2s-1.1-2.2-2.7-2.2h-4.6V199.6z"/>
			<path id="XMLID_337_" class="st6" d="M-32.5,207.6c-3.6,0-6.6-2.5-6.6-6.5s3-6.7,6.6-6.7s6.6,2.6,6.6,6.7
				C-25.9,205-28.9,207.6-32.5,207.6z M-29.4,201c0-2.2-1.3-3.8-3-3.8c-1.8,0-3.1,1.5-3.1,3.8s1.3,3.8,3.1,3.8
				C-30.7,204.7-29.4,203.3-29.4,201z"/>
			<path id="XMLID_334_" class="st6" d="M-17.5,207.6c-3.6,0-6.6-2.5-6.6-6.5s3-6.7,6.6-6.7s6.6,2.6,6.6,6.7
				C-11,205-13.9,207.6-17.5,207.6z M-14.5,201c0-2.2-1.3-3.8-3-3.8c-1.8,0-3.1,1.5-3.1,3.8s1.3,3.8,3.1,3.8
				C-15.8,204.7-14.5,203.3-14.5,201z"/>
			<path id="XMLID_332_" class="st6" d="M-7.6,194.7v-3.8H-4v3.8h3.1v2.8H-4v5.6c0,0.9,0.4,1.4,1.3,1.4c0.7,0,1.4-0.4,1.4-0.4l1,2.5
				c-0.5,0.4-1.8,1-3.2,1c-2.9,0-4.1-1.8-4.1-4.3v-5.8h-2.2v-2.8C-9.8,194.7-7.6,194.7-7.6,194.7z"/>
			<path id="XMLID_330_" class="st6" d="M2.1,203.7c0,0,1.9,1.2,4.1,1.2c1.4,0,1.9-0.5,1.9-1.1c0-2-7-0.8-7-5.6c0-2.2,1.7-3.8,5-3.8
				c3.6,0,5.5,1.1,5.5,1.1l-1.1,2.7c0,0-1.7-1.1-4-1.1c-1.2,0-1.8,0.3-1.8,1c0,2,7.2,0.6,7.2,5.5c0,2.2-1.6,3.9-5.5,3.9
				c-3.8,0-5.5-1.4-5.5-1.4L2.1,203.7z"/>
			<path id="XMLID_328_" class="st6" d="M15.3,194.7v-3.8h3.6v3.8H22v2.8h-3.1v5.6c0,0.9,0.4,1.4,1.3,1.4c0.7,0,1.3-0.4,1.3-0.4
				l1,2.5c-0.5,0.4-1.8,1-3.2,1c-2.9,0-4.1-1.8-4.1-4.3v-5.8H13v-2.8C13,194.7,15.3,194.7,15.3,194.7z"/>
			<path id="XMLID_326_" class="st6" d="M31.8,197.7h-0.7c-1.7,0-2.9,1.2-2.9,3.1v6.5h-3.6v-12.6h2.2l0.5,1.9h0.2
				c0.7-1.2,1.9-1.9,3.5-1.9h0.7v3H31.8z"/>
			<path id="XMLID_323_" class="st6" d="M44.5,207.3H42l-0.5-1.6h-0.1c-0.7,1.1-2,1.9-4,1.9c-2.9,0-4.6-1.7-4.6-4
				c0-2.5,1.9-4.1,5.7-4.1c1.1,0,2,0.1,2.6,0.3v-0.4c0-1.6-1.1-2.1-3-2.1c-1.8,0-3.3,0.9-3.3,0.9l-1.1-2.6c0,0,1.8-1.1,5.1-1.1
				c3.8,0,5.8,2.1,5.8,5.1L44.5,207.3L44.5,207.3z M41.1,202.8v-1c-0.3-0.2-1-0.4-2.2-0.4c-1.8,0-2.8,0.7-2.8,1.9
				c0,1,0.8,1.8,2.2,1.8C39.8,205.1,41,204.2,41.1,202.8z"/>
			<path id="XMLID_320_" class="st6" d="M51.3,206v6h-3.6v-17.3H50l0.5,1.8h0.2c0,0,1.1-2.1,4.2-2.1c3.3,0,5.8,2.5,5.8,6.6
				c0,3.9-2.5,6.6-5.7,6.6C52.2,207.6,51.4,206,51.3,206L51.3,206z M54.1,204.6c1.8,0,3-1.5,3-3.6c0-2.1-1.2-3.7-3-3.7
				c-1.7,0-3,1.4-3,3.7C51.1,203.2,52.4,204.6,54.1,204.6z"/>
		</g>
		<g id="XMLID_308_">
			<path id="XMLID_317_" class="st6" d="M-87.5,304.8c0,0-2.6,3-8.1,3c-7.6,0-12.2-5.6-12.2-12.6s4.7-12.5,12.2-12.5
				c5.6,0,8.1,3,8.1,3l-2.8,3.7c0,0-1.8-2-5.3-2c-4.3,0-7.3,3.3-7.3,7.9c0,4.6,3,7.9,7.3,7.9c3.4,0,5.3-2.1,5.3-2.1L-87.5,304.8z"/>
			<path id="XMLID_314_" class="st6" d="M-77.5,307.7c-4.8,0-8.8-3.4-8.8-8.7c0-5.4,4-8.9,8.8-8.9s8.8,3.5,8.8,8.9
				C-68.7,304.3-72.7,307.7-77.5,307.7z M-73.4,298.9c0-3-1.7-5-4-5c-2.4,0-4.1,2-4.1,5c0,3.1,1.7,5,4.1,5
				C-75.2,303.9-73.4,302-73.4,298.9z"/>
			<path id="XMLID_312_" class="st6" d="M-55.8,294.5h-0.9c-2.2,0-3.8,1.6-3.8,4.1v8.7h-4.8v-16.8h3l0.7,2.5h0.2
				c0.9-1.6,2.5-2.5,4.7-2.5h0.9L-55.8,294.5L-55.8,294.5z"/>
			<path id="XMLID_309_" class="st6" d="M-39,305.7c0,0-2,2-6.3,2c-5.6,0-9-3.8-9-8.9c0-5,3.4-8.8,8.3-8.8c4.9,0,7.8,3.3,7.8,8.4
				c0,0.5,0,1.3,0,1.3h-11.5c0.3,2.9,2,4.2,4.7,4.2c2.6,0,4.3-1.4,4.3-1.4L-39,305.7z M-49.6,296.9h6.7c-0.2-2-1.3-3.2-3.3-3.2
				C-47.9,293.7-49.2,294.7-49.6,296.9z"/>
		</g>
		<g id="XMLID_291_">
			<path id="XMLID_305_" class="st6" d="M110.3,245.3c0,3.8-2.8,6.1-6.9,6.1h-4v5.8h-3.6v-18h7.7
				C107.6,239.3,110.3,241.7,110.3,245.3z M103.2,242.5h-3.8v5.8h3.8c2,0,3.4-0.9,3.4-2.9S105.2,242.5,103.2,242.5z"/>
			<path id="XMLID_303_" class="st6" d="M112.7,239.1h3.6v18.2h-3.6V239.1z"/>
			<path id="XMLID_301_" class="st6" d="M128.1,244.7h3.6v12.6h-2.4l-0.6-1.7h-0.2c-0.6,0.9-1.7,2-3.9,2c-3.2,0-5.2-2.2-5.2-5.6
				v-7.3h3.6v7c0,1.6,0.8,2.8,2.4,2.8c1.7,0,2.6-1.4,2.6-2.6v-7.2H128.1z"/>
			<path id="XMLID_297_" class="st6" d="M145.2,247.4L145.2,247.4c0,0.1,0.4,0.4,0.4,1.6c0,2.1-1.7,4-5.3,4c-0.8,0-1.6-0.1-2.2-0.3
				c-0.5,0.3-0.6,0.5-0.6,0.9c0,0.5,0.3,0.9,3.2,1.1c4.8,0.2,6.4,1.3,6.4,3.8c0,2.3-2.2,4.3-6.7,4.3s-6.3-1.4-6.3-3.4
				c0-1.1,0.5-2,1.9-2.8c-1.2-0.6-1.7-1.5-1.7-2.6c0-0.9,0.5-1.7,1.8-2.4c-0.8-0.7-1.2-1.7-1.2-2.8c0-2.5,2-4.4,5.3-4.4
				c0.8,0,1.4,0.1,2,0.2h4.6v2.7L145.2,247.4L145.2,247.4z M138.8,257.3c-0.7,0.3-1.2,1-1.2,1.7c0,0.8,0.8,1.4,2.8,1.4
				c2.2,0,3.1-0.7,3.1-1.5c0-0.8-0.5-1.4-2.8-1.5C139.9,257.4,139.3,257.4,138.8,257.3z M138.2,248.8c0,1.1,0.8,2,2.1,2
				c1.4,0,2.2-0.9,2.2-2s-0.8-2-2.2-2C139,246.8,138.2,247.7,138.2,248.8z"/>
			<path id="XMLID_294_" class="st6" d="M149,240.7c0-1.2,0.9-2.1,2.1-2.1s2.1,0.9,2.1,2.1c0,1.2-0.9,2-2.1,2S149,241.9,149,240.7z
				 M149.2,244.7h3.6v12.6h-3.6V244.7z"/>
			<path id="XMLID_292_" class="st6" d="M159.8,257.3h-3.6v-12.6h2.2l0.5,1.8h0.2c1-1.4,2.1-2.1,4.1-2.1c3.2,0,5.2,2.2,5.2,5.6v7.3
				h-3.6v-7c0-1.5-0.9-2.8-2.5-2.8c-1.7,0-2.5,1.3-2.5,2.6L159.8,257.3L159.8,257.3z"/>
		</g>
		<g id="XMLID_274_">
			<path id="XMLID_288_" class="st6" d="M110.3,295.3c0,3.8-2.8,6.1-6.9,6.1h-4v5.8h-3.6v-18h7.7
				C107.6,289.3,110.3,291.7,110.3,295.3z M103.2,292.5h-3.8v5.8h3.8c2,0,3.4-0.9,3.4-2.9S105.2,292.5,103.2,292.5z"/>
			<path id="XMLID_286_" class="st6" d="M112.7,289.1h3.6v18.2h-3.6V289.1z"/>
			<path id="XMLID_284_" class="st6" d="M128.1,294.7h3.6v12.6h-2.4l-0.6-1.7h-0.2c-0.6,0.9-1.7,2-3.9,2c-3.2,0-5.2-2.2-5.2-5.6
				v-7.3h3.6v7c0,1.6,0.8,2.8,2.4,2.8c1.7,0,2.6-1.4,2.6-2.6v-7.2H128.1z"/>
			<path id="XMLID_280_" class="st6" d="M145.2,297.4L145.2,297.4c0,0.1,0.4,0.4,0.4,1.6c0,2.1-1.7,4-5.3,4c-0.8,0-1.6-0.1-2.2-0.3
				c-0.5,0.3-0.6,0.5-0.6,0.9c0,0.5,0.3,0.9,3.2,1.1c4.8,0.2,6.4,1.3,6.4,3.8c0,2.3-2.2,4.3-6.7,4.3s-6.3-1.4-6.3-3.4
				c0-1.1,0.5-2,1.9-2.8c-1.2-0.6-1.7-1.5-1.7-2.6c0-0.9,0.5-1.7,1.8-2.4c-0.8-0.7-1.2-1.7-1.2-2.8c0-2.5,2-4.4,5.3-4.4
				c0.8,0,1.4,0.1,2,0.2h4.6v2.7L145.2,297.4L145.2,297.4z M138.8,307.3c-0.7,0.3-1.2,1-1.2,1.7c0,0.8,0.8,1.4,2.8,1.4
				c2.2,0,3.1-0.7,3.1-1.5c0-0.8-0.5-1.4-2.8-1.5C139.9,307.4,139.3,307.4,138.8,307.3z M138.2,298.8c0,1.1,0.8,2,2.1,2
				c1.4,0,2.2-0.9,2.2-2s-0.8-2-2.2-2C139,296.8,138.2,297.7,138.2,298.8z"/>
			<path id="XMLID_277_" class="st6" d="M149,290.7c0-1.2,0.9-2.1,2.1-2.1s2.1,0.9,2.1,2.1s-0.9,2-2.1,2S149,291.9,149,290.7z
				 M149.2,294.7h3.6v12.6h-3.6V294.7z"/>
			<path id="XMLID_275_" class="st6" d="M159.8,307.3h-3.6v-12.6h2.2l0.5,1.8h0.2c1-1.4,2.1-2.1,4.1-2.1c3.2,0,5.2,2.2,5.2,5.6v7.3
				h-3.6v-7c0-1.5-0.9-2.8-2.5-2.8c-1.7,0-2.5,1.3-2.5,2.6L159.8,307.3L159.8,307.3z"/>
		</g>
		<g id="XMLID_257_">
			<path id="XMLID_271_" class="st6" d="M110.3,345.3c0,3.8-2.8,6.1-6.9,6.1h-4v5.8h-3.6v-18h7.7
				C107.6,339.3,110.3,341.7,110.3,345.3z M103.2,342.5h-3.8v5.8h3.8c2,0,3.4-0.9,3.4-2.9S105.2,342.5,103.2,342.5z"/>
			<path id="XMLID_269_" class="st6" d="M112.7,339.1h3.6v18.2h-3.6V339.1z"/>
			<path id="XMLID_267_" class="st6" d="M128.1,344.7h3.6v12.6h-2.4l-0.6-1.7h-0.2c-0.6,0.9-1.7,2-3.9,2c-3.2,0-5.2-2.2-5.2-5.6
				v-7.3h3.6v7c0,1.6,0.8,2.8,2.4,2.8c1.7,0,2.6-1.4,2.6-2.6v-7.2H128.1z"/>
			<path id="XMLID_263_" class="st6" d="M145.2,347.4L145.2,347.4c0,0.1,0.4,0.4,0.4,1.6c0,2.1-1.7,4-5.3,4c-0.8,0-1.6-0.1-2.2-0.3
				c-0.5,0.3-0.6,0.5-0.6,0.9c0,0.5,0.3,0.9,3.2,1.1c4.8,0.2,6.4,1.3,6.4,3.8c0,2.3-2.2,4.3-6.7,4.3s-6.3-1.4-6.3-3.4
				c0-1,0.5-2,1.9-2.8c-1.2-0.6-1.7-1.5-1.7-2.6c0-0.9,0.5-1.7,1.8-2.4c-0.8-0.7-1.2-1.7-1.2-2.8c0-2.5,2-4.4,5.3-4.4
				c0.8,0,1.4,0.1,2,0.2h4.6v2.7L145.2,347.4L145.2,347.4z M138.8,357.3c-0.7,0.3-1.2,1-1.2,1.7c0,0.8,0.8,1.4,2.8,1.4
				c2.2,0,3.1-0.7,3.1-1.5s-0.5-1.4-2.8-1.5C139.9,357.4,139.3,357.4,138.8,357.3z M138.2,348.8c0,1.1,0.8,2,2.1,2
				c1.4,0,2.2-0.9,2.2-2s-0.8-2-2.2-2C139,346.8,138.2,347.7,138.2,348.8z"/>
			<path id="XMLID_260_" class="st6" d="M149,340.7c0-1.2,0.9-2.1,2.1-2.1s2.1,0.9,2.1,2.1s-0.9,2-2.1,2S149,341.9,149,340.7z
				 M149.2,344.7h3.6v12.6h-3.6V344.7z"/>
			<path id="XMLID_258_" class="st6" d="M159.8,357.3h-3.6v-12.6h2.2l0.5,1.8h0.2c1-1.4,2.1-2.1,4.1-2.1c3.2,0,5.2,2.2,5.2,5.6v7.3
				h-3.6v-7c0-1.5-0.9-2.8-2.5-2.8c-1.7,0-2.5,1.3-2.5,2.6L159.8,357.3L159.8,357.3z"/>
		</g>
		<g id="XMLID_244_">
			<path id="XMLID_255_" class="st6" d="M-38.7,389.3h14.3v3.2h-5.4v14.8h-3.6v-14.8h-5.3V389.3z"/>
			<path id="XMLID_253_" class="st6" d="M-22.3,389.1h3.6v6.7h0.1c0.7-0.9,1.8-1.5,3.5-1.5c3.1,0,5,2.2,5,5.6v7.3h-3.6v-7
				c0-1.6-1-2.8-2.5-2.8c-1.6,0-2.5,1.2-2.5,2.4v7.4h-3.6V389.1z"/>
			<path id="XMLID_250_" class="st6" d="M3.8,406.1c0,0-1.5,1.5-4.7,1.5c-4.2,0-6.8-2.8-6.8-6.7c0-3.8,2.5-6.6,6.2-6.6
				s5.9,2.5,5.9,6.3c0,0.4,0,1,0,1h-8.6c0.2,2.2,1.5,3.2,3.5,3.2s3.2-1.1,3.2-1.1L3.8,406.1z M-4.1,399.5h5c-0.2-1.5-1-2.4-2.5-2.4
				C-2.8,397.1-3.8,397.9-4.1,399.5z"/>
			<path id="XMLID_248_" class="st6" d="M19.2,407.3h-3.6v-7.2c0-1.5-0.9-2.6-2.5-2.6s-2.5,1.1-2.5,2.4v7.4H7v-12.6h2.2l0.5,1.8h0.2
				c0.8-1.3,2.1-2.1,4-2.1c2,0,3.5,0.8,4.4,2.2h0.2c0.8-1.3,2-2.2,4.1-2.2c3.2,0,5.2,2.2,5.2,5.6v7.3h-3.6v-7c0-1.5-0.9-2.8-2.5-2.8
				c-1.7,0-2.5,1.2-2.5,2.6L19.2,407.3L19.2,407.3z"/>
			<path id="XMLID_245_" class="st6" d="M41.7,406.1c0,0-1.5,1.5-4.7,1.5c-4.2,0-6.7-2.8-6.7-6.7c0-3.8,2.5-6.6,6.2-6.6
				s5.9,2.5,5.9,6.3c0,0.4,0,1,0,1h-8.6c0.2,2.2,1.5,3.2,3.5,3.2s3.2-1.1,3.2-1.1L41.7,406.1z M33.8,399.5h5c-0.2-1.5-1-2.4-2.5-2.4
				C35,397.1,34,397.9,33.8,399.5z"/>
		</g>
	</g>
	<g id="XMLID_121_">
		<g id="XMLID_4_">
			<path id="XMLID_192_" class="st1" d="M-48.5,206.3h-8.3v-18h8.1c4.1,0,6.2,1.8,6.2,4.9c0,1.6-0.9,3-2.3,3.8v0.2
				c1.8,0.5,2.8,2,2.8,3.9C-41.9,204.4-44.4,206.3-48.5,206.3z M-48.8,191.5h-4.4v4.3h4.4c1.5,0,2.5-0.9,2.5-2.1
				C-46.3,192.3-47.2,191.5-48.8,191.5z M-53.2,198.6v4.5h4.7c1.5,0,2.6-0.9,2.6-2.2s-1.1-2.2-2.7-2.2h-4.6V198.6z"/>
			<path id="XMLID_196_" class="st1" d="M-33.4,206.6c-3.6,0-6.6-2.5-6.6-6.5s3-6.7,6.6-6.7s6.6,2.6,6.6,6.7
				C-26.8,204.1-29.8,206.6-33.4,206.6z M-30.3,200c0-2.2-1.3-3.8-3-3.8c-1.8,0-3.1,1.5-3.1,3.8s1.3,3.8,3.1,3.8
				C-31.6,203.8-30.3,202.3-30.3,200z"/>
			<path id="XMLID_199_" class="st1" d="M-18.4,206.6c-3.6,0-6.6-2.5-6.6-6.5s3-6.7,6.6-6.7s6.6,2.6,6.6,6.7
				C-11.9,204.1-14.8,206.6-18.4,206.6z M-15.4,200c0-2.2-1.3-3.8-3-3.8c-1.8,0-3.1,1.5-3.1,3.8s1.3,3.8,3.1,3.8
				C-16.7,203.8-15.4,202.3-15.4,200z"/>
			<path id="XMLID_202_" class="st1" d="M-8.5,193.7v-3.8h3.6v3.8h3.1v2.8h-3.1v5.6c0,0.9,0.4,1.4,1.3,1.4c0.7,0,1.4-0.4,1.4-0.4
				l1,2.5c-0.5,0.4-1.8,1-3.2,1c-2.9,0-4.1-1.8-4.1-4.3v-5.8h-2.2v-2.8C-10.7,193.7-8.5,193.7-8.5,193.7z"/>
			<path id="XMLID_204_" class="st1" d="M1.2,202.7c0,0,1.9,1.2,4.1,1.2c1.4,0,1.9-0.5,1.9-1.1c0-2-7-0.8-7-5.6c0-2.2,1.7-3.8,5-3.8
				c3.6,0,5.5,1.1,5.5,1.1l-1.1,2.7c0,0-1.7-1.1-4-1.1c-1.2,0-1.8,0.3-1.8,1c0,2,7.2,0.6,7.2,5.5c0,2.2-1.6,3.9-5.5,3.9
				c-3.8,0-5.5-1.4-5.5-1.4L1.2,202.7z"/>
			<path id="XMLID_206_" class="st1" d="M14.5,193.7v-3.8h3.6v3.8h3.1v2.8h-3.1v5.6c0,0.9,0.4,1.4,1.3,1.4c0.7,0,1.3-0.4,1.3-0.4
				l1,2.5c-0.5,0.4-1.8,1-3.2,1c-2.9,0-4.1-1.8-4.1-4.3v-5.8h-2.2v-2.8C12.2,193.7,14.5,193.7,14.5,193.7z"/>
			<path id="XMLID_208_" class="st1" d="M30.9,196.7h-0.7c-1.7,0-2.9,1.2-2.9,3.1v6.5h-3.6v-12.6h2.2l0.5,1.9h0.2
				c0.7-1.2,1.9-1.9,3.5-1.9h0.7v3H30.9z"/>
			<path id="XMLID_210_" class="st1" d="M43.6,206.3h-2.5l-0.5-1.6h-0.1c-0.7,1.1-2,1.9-4,1.9c-2.9,0-4.6-1.7-4.6-4
				c0-2.5,1.9-4.1,5.7-4.1c1.1,0,2,0.1,2.6,0.3v-0.4c0-1.6-1.1-2.1-3-2.1c-1.8,0-3.3,0.9-3.3,0.9l-1.1-2.6c0,0,1.8-1.1,5.1-1.1
				c3.8,0,5.8,2.1,5.8,5.1L43.6,206.3L43.6,206.3z M40.2,201.9v-1c-0.3-0.2-1-0.4-2.2-0.4c-1.8,0-2.8,0.7-2.8,1.9
				c0,1,0.8,1.8,2.2,1.8C38.9,204.1,40.1,203.2,40.2,201.9z"/>
			<path id="XMLID_213_" class="st1" d="M50.4,205v6h-3.6v-17.3h2.3l0.5,1.8h0.2c0,0,1.1-2.1,4.2-2.1c3.3,0,5.8,2.5,5.8,6.6
				c0,3.9-2.5,6.6-5.7,6.6C51.3,206.6,50.5,205,50.4,205L50.4,205z M53.2,203.6c1.8,0,3-1.5,3-3.6c0-2.1-1.2-3.7-3-3.7
				c-1.7,0-3,1.4-3,3.7C50.2,202.3,51.5,203.6,53.2,203.6z"/>
		</g>
		<g id="XMLID_9_">
			<path id="XMLID_182_" class="st1" d="M-88.4,303.9c0,0-2.6,3-8.1,3c-7.6,0-12.2-5.6-12.2-12.6s4.7-12.5,12.2-12.5
				c5.6,0,8.1,3,8.1,3l-2.8,3.7c0,0-1.8-2-5.3-2c-4.3,0-7.3,3.3-7.3,7.9c0,4.6,3,7.9,7.3,7.9c3.4,0,5.3-2.1,5.3-2.1L-88.4,303.9z"/>
			<path id="XMLID_184_" class="st1" d="M-78.4,306.7c-4.8,0-8.8-3.4-8.8-8.7c0-5.4,4-8.9,8.8-8.9s8.8,3.5,8.8,8.9
				C-69.6,303.3-73.6,306.7-78.4,306.7z M-74.3,297.9c0-3-1.7-5-4-5c-2.4,0-4.1,2-4.1,5c0,3.1,1.7,5,4.1,5
				C-76,302.9-74.3,301-74.3,297.9z"/>
			<path id="XMLID_187_" class="st1" d="M-56.7,293.5h-0.9c-2.2,0-3.8,1.6-3.8,4.1v8.7h-4.8v-16.8h3l0.7,2.5h0.2
				c0.9-1.6,2.5-2.5,4.7-2.5h0.9L-56.7,293.5L-56.7,293.5z"/>
			<path id="XMLID_189_" class="st1" d="M-39.9,304.7c0,0-2,2-6.3,2c-5.6,0-9-3.8-9-8.9c0-5,3.4-8.8,8.3-8.8c4.9,0,7.8,3.3,7.8,8.4
				c0,0.5,0,1.3,0,1.3h-11.5c0.3,2.9,2,4.2,4.7,4.2c2.6,0,4.3-1.4,4.3-1.4L-39.9,304.7z M-50.5,295.9h6.7c-0.2-2-1.3-3.2-3.3-3.2
				C-48.8,292.7-50.1,293.7-50.5,295.9z"/>
		</g>
		<g id="XMLID_10_">
			<path id="XMLID_166_" class="st1" d="M109.4,244.3c0,3.8-2.8,6.1-6.9,6.1h-4v5.8h-3.6v-18h7.7
				C106.7,238.3,109.4,240.7,109.4,244.3z M102.3,241.5h-3.8v5.8h3.8c2,0,3.4-0.9,3.4-2.9C105.7,242.4,104.3,241.5,102.3,241.5z"/>
			<path id="XMLID_169_" class="st1" d="M111.8,238.2h3.6v18.1h-3.6V238.2z"/>
			<path id="XMLID_171_" class="st1" d="M127.2,243.7h3.6v12.6h-2.4l-0.6-1.7h-0.2c-0.6,0.9-1.7,2-3.9,2c-3.2,0-5.2-2.2-5.2-5.6
				v-7.3h3.6v7c0,1.6,0.8,2.8,2.4,2.8c1.7,0,2.6-1.4,2.6-2.6v-7.2H127.2z"/>
			<path id="XMLID_173_" class="st1" d="M144.4,246.4L144.4,246.4c0,0.1,0.4,0.4,0.4,1.6c0,2.1-1.7,4-5.3,4c-0.8,0-1.6-0.1-2.2-0.3
				c-0.5,0.3-0.6,0.5-0.6,0.9c0,0.5,0.3,0.9,3.2,1.1c4.8,0.2,6.4,1.3,6.4,3.8c0,2.3-2.2,4.3-6.7,4.3s-6.3-1.4-6.3-3.4
				c0-1.1,0.5-2,1.9-2.8c-1.2-0.6-1.7-1.5-1.7-2.6c0-0.9,0.5-1.7,1.8-2.4c-0.8-0.7-1.2-1.7-1.2-2.8c0-2.5,2-4.4,5.3-4.4
				c0.8,0,1.4,0.1,2,0.2h4.6v2.7L144.4,246.4L144.4,246.4z M137.9,256.3c-0.7,0.3-1.2,1-1.2,1.7c0,0.8,0.8,1.4,2.8,1.4
				c2.2,0,3.1-0.7,3.1-1.5c0-0.8-0.5-1.4-2.8-1.5C139,256.5,138.4,256.4,137.9,256.3z M137.3,247.8c0,1.1,0.8,2,2.1,2
				c1.4,0,2.2-0.9,2.2-2s-0.8-2-2.2-2C138.1,245.8,137.3,246.7,137.3,247.8z"/>
			<path id="XMLID_177_" class="st1" d="M148.1,239.7c0-1.2,0.9-2.1,2.1-2.1s2.1,0.9,2.1,2.1c0,1.2-0.9,2-2.1,2
				S148.1,240.9,148.1,239.7z M148.3,243.7h3.6v12.6h-3.6V243.7z"/>
			<path id="XMLID_180_" class="st1" d="M158.9,256.3h-3.6v-12.6h2.2l0.5,1.8h0.2c1-1.4,2.1-2.1,4.1-2.1c3.2,0,5.2,2.2,5.2,5.6v7.3
				H164v-7c0-1.5-0.9-2.8-2.5-2.8c-1.7,0-2.5,1.3-2.5,2.6v7.2H158.9z"/>
		</g>
		<g id="XMLID_11_">
			<path id="XMLID_150_" class="st1" d="M109.4,294.3c0,3.8-2.8,6.1-6.9,6.1h-4v5.8h-3.6v-18h7.7
				C106.7,288.3,109.4,290.7,109.4,294.3z M102.3,291.5h-3.8v5.8h3.8c2,0,3.4-0.9,3.4-2.9C105.7,292.4,104.3,291.5,102.3,291.5z"/>
			<path id="XMLID_153_" class="st1" d="M111.8,288.2h3.6v18.1h-3.6V288.2z"/>
			<path id="XMLID_155_" class="st1" d="M127.2,293.7h3.6v12.6h-2.4l-0.6-1.7h-0.2c-0.6,0.9-1.7,2-3.9,2c-3.2,0-5.2-2.2-5.2-5.6
				v-7.3h3.6v7c0,1.6,0.8,2.8,2.4,2.8c1.7,0,2.6-1.4,2.6-2.6v-7.2H127.2z"/>
			<path id="XMLID_157_" class="st1" d="M144.4,296.4L144.4,296.4c0,0.1,0.4,0.4,0.4,1.6c0,2.1-1.7,4-5.3,4c-0.8,0-1.6-0.1-2.2-0.3
				c-0.5,0.3-0.6,0.5-0.6,0.9c0,0.5,0.3,0.9,3.2,1.1c4.8,0.2,6.4,1.3,6.4,3.8c0,2.3-2.2,4.3-6.7,4.3s-6.3-1.4-6.3-3.4
				c0-1.1,0.5-2,1.9-2.8c-1.2-0.6-1.7-1.5-1.7-2.6c0-0.9,0.5-1.7,1.8-2.4c-0.8-0.7-1.2-1.7-1.2-2.8c0-2.5,2-4.4,5.3-4.4
				c0.8,0,1.4,0.1,2,0.2h4.6v2.7L144.4,296.4L144.4,296.4z M137.9,306.3c-0.7,0.3-1.2,1-1.2,1.7c0,0.8,0.8,1.4,2.8,1.4
				c2.2,0,3.1-0.7,3.1-1.5c0-0.8-0.5-1.4-2.8-1.5C139,306.5,138.4,306.4,137.9,306.3z M137.3,297.8c0,1.1,0.8,2,2.1,2
				c1.4,0,2.2-0.9,2.2-2s-0.8-2-2.2-2C138.1,295.8,137.3,296.7,137.3,297.8z"/>
			<path id="XMLID_161_" class="st1" d="M148.1,289.7c0-1.2,0.9-2.1,2.1-2.1s2.1,0.9,2.1,2.1s-0.9,2-2.1,2S148.1,290.9,148.1,289.7z
				 M148.3,293.7h3.6v12.6h-3.6V293.7z"/>
			<path id="XMLID_164_" class="st1" d="M158.9,306.3h-3.6v-12.6h2.2l0.5,1.8h0.2c1-1.4,2.1-2.1,4.1-2.1c3.2,0,5.2,2.2,5.2,5.6v7.3
				H164v-7c0-1.5-0.9-2.8-2.5-2.8c-1.7,0-2.5,1.3-2.5,2.6v7.2H158.9z"/>
		</g>
		<g id="XMLID_12_">
			<path id="XMLID_134_" class="st1" d="M109.4,344.3c0,3.8-2.8,6.1-6.9,6.1h-4v5.8h-3.6v-18h7.7
				C106.7,338.3,109.4,340.7,109.4,344.3z M102.3,341.5h-3.8v5.8h3.8c2,0,3.4-0.9,3.4-2.9C105.7,342.4,104.3,341.5,102.3,341.5z"/>
			<path id="XMLID_137_" class="st1" d="M111.8,338.2h3.6v18.1h-3.6V338.2z"/>
			<path id="XMLID_139_" class="st1" d="M127.2,343.7h3.6v12.6h-2.4l-0.6-1.7h-0.2c-0.6,0.9-1.7,2-3.9,2c-3.2,0-5.2-2.2-5.2-5.6
				v-7.3h3.6v7c0,1.6,0.8,2.8,2.4,2.8c1.7,0,2.6-1.4,2.6-2.6v-7.2H127.2z"/>
			<path id="XMLID_141_" class="st1" d="M144.4,346.4L144.4,346.4c0,0.1,0.4,0.4,0.4,1.6c0,2.1-1.7,4-5.3,4c-0.8,0-1.6-0.1-2.2-0.3
				c-0.5,0.3-0.6,0.5-0.6,0.9c0,0.5,0.3,0.9,3.2,1.1c4.8,0.2,6.4,1.3,6.4,3.8c0,2.3-2.2,4.3-6.7,4.3s-6.3-1.4-6.3-3.4
				c0-1,0.5-2,1.9-2.8c-1.2-0.6-1.7-1.5-1.7-2.6c0-0.9,0.5-1.7,1.8-2.4c-0.8-0.7-1.2-1.7-1.2-2.8c0-2.5,2-4.4,5.3-4.4
				c0.8,0,1.4,0.1,2,0.2h4.6v2.7L144.4,346.4L144.4,346.4z M137.9,356.3c-0.7,0.3-1.2,1-1.2,1.7c0,0.8,0.8,1.4,2.8,1.4
				c2.2,0,3.1-0.7,3.1-1.5s-0.5-1.4-2.8-1.5C139,356.5,138.4,356.4,137.9,356.3z M137.3,347.8c0,1.1,0.8,2,2.1,2
				c1.4,0,2.2-0.9,2.2-2s-0.8-2-2.2-2C138.1,345.8,137.3,346.7,137.3,347.8z"/>
			<path id="XMLID_145_" class="st1" d="M148.1,339.7c0-1.2,0.9-2.1,2.1-2.1s2.1,0.9,2.1,2.1s-0.9,2-2.1,2S148.1,340.9,148.1,339.7z
				 M148.3,343.7h3.6v12.6h-3.6V343.7z"/>
			<path id="XMLID_148_" class="st1" d="M158.9,356.3h-3.6v-12.6h2.2l0.5,1.8h0.2c1-1.4,2.1-2.1,4.1-2.1c3.2,0,5.2,2.2,5.2,5.6v7.3
				H164v-7c0-1.5-0.9-2.8-2.5-2.8c-1.7,0-2.5,1.3-2.5,2.6v7.2H158.9z"/>
		</g>
		<g id="XMLID_14_">
			<path id="XMLID_122_" class="st1" d="M-39.6,388.3h14.3v3.2h-5.4v14.8h-3.6v-14.8h-5.3V388.3z"/>
			<path id="XMLID_124_" class="st1" d="M-23.2,388.2h3.6v6.7h0.1c0.7-0.9,1.8-1.5,3.5-1.5c3.1,0,5,2.2,5,5.6v7.3h-3.6v-7
				c0-1.6-1-2.8-2.5-2.8c-1.6,0-2.5,1.2-2.5,2.4v7.4h-3.6V388.2z"/>
			<path id="XMLID_126_" class="st1" d="M3,405.1c0,0-1.5,1.5-4.7,1.5c-4.2,0-6.8-2.8-6.8-6.7c0-3.8,2.5-6.6,6.2-6.6
				s5.9,2.5,5.9,6.3c0,0.4,0,1,0,1H-5c0.2,2.2,1.5,3.2,3.5,3.2s3.2-1.1,3.2-1.1L3,405.1z M-5,398.5h5c-0.2-1.5-1-2.4-2.5-2.4
				C-3.7,396.1-4.7,396.9-5,398.5z"/>
			<path id="XMLID_129_" class="st1" d="M18.3,406.3h-3.6v-7.2c0-1.5-0.9-2.6-2.5-2.6s-2.5,1.1-2.5,2.4v7.4H6v-12.6h2.2l0.5,1.8h0.2
				c0.8-1.3,2.1-2.1,4-2.1c2,0,3.5,0.8,4.4,2.2h0.2c0.8-1.3,2-2.2,4.1-2.2c3.2,0,5.2,2.2,5.2,5.6v7.3h-3.6v-7c0-1.5-0.9-2.8-2.5-2.8
				c-1.7,0-2.5,1.2-2.5,2.6v7.2H18.3z"/>
			<path id="XMLID_131_" class="st1" d="M40.8,405.1c0,0-1.5,1.5-4.7,1.5c-4.2,0-6.7-2.8-6.7-6.7c0-3.8,2.5-6.6,6.2-6.6
				s5.9,2.5,5.9,6.3c0,0.4,0,1,0,1h-8.6c0.2,2.2,1.5,3.2,3.5,3.2s3.2-1.1,3.2-1.1L40.8,405.1z M32.9,398.5h5c-0.2-1.5-1-2.4-2.5-2.4
				C34.1,396.1,33.2,396.9,32.9,398.5z"/>
		</g>
	</g>
</g>
<g id="XMLID_2_">
	<polygon id="XMLID_22_" class="st7" points="-10,431.3 -10,451.3 -19.1,451.3 0.9,471.1 20.9,451.3 10,451.3 10,431.3 	"/>
	<path id="XMLID_118_" class="st1" d="M0.9,471.3l-21.2-21H-10v-20h21v20h11.2L0.9,471.3z M-17.8,451.3L1,469.8l18.8-18.5H10v-20H-9
		v20H-17.8z"/>
</g>
<g id="XMLID_17_">
	<path id="XMLID_59_" class="st1" d="M-76.7,498.3h-3.7v-7.5h-8.3v7.5h-3.6v-18h3.6v7.6h8.3v-7.6h3.7V498.3z"/>
	<path id="XMLID_61_" class="st1" d="M-73.9,480.3h14.3v3.2H-65v14.8h-3.6v-14.8h-5.3V480.3z"/>
	<path id="XMLID_63_" class="st1" d="M-58.1,480.3h14.3v3.2h-5.4v14.8h-3.6v-14.8h-5.3V480.3z"/>
	<path id="XMLID_65_" class="st1" d="M-26.5,486.3c0,3.8-2.8,6.1-6.9,6.1h-4v5.8H-41v-18h7.7C-29.2,480.3-26.5,482.7-26.5,486.3z
		 M-33.6,483.5h-3.8v5.8h3.8c2,0,3.4-0.9,3.4-2.9C-30.2,484.4-31.6,483.5-33.6,483.5z"/>
	<path id="XMLID_68_" class="st1" d="M-10.6,480.3c4.2,0,6.9,2.4,6.9,6c0,2.6-1.4,4.6-3.6,5.5v0.2l4.2,5.9v0.4h-4.1l-4-5.9h-3.4v5.9
		h-3.6v-18H-10.6z M-10.8,483.5h-3.8v5.8h3.9c1.9,0,3.3-1,3.3-2.9C-7.4,484.4-8.8,483.5-10.8,483.5z"/>
	<path id="XMLID_100_" class="st1" d="M9.5,497.1c0,0-1.5,1.5-4.7,1.5c-4.2,0-6.8-2.8-6.8-6.7c0-3.8,2.5-6.6,6.2-6.6
		s5.9,2.5,5.9,6.3c0,0.4,0,1,0,1H1.5c0.2,2.2,1.5,3.1,3.5,3.1s3.2-1,3.2-1L9.5,497.1z M1.6,490.5h5c-0.2-1.5-1-2.4-2.5-2.4
		C2.9,488.1,1.9,488.9,1.6,490.5z"/>
	<path id="XMLID_103_" class="st1" d="M13,494.7c0,0,1.9,1.2,4.1,1.2c1.4,0,1.9-0.5,1.9-1.1c0-2-7-0.8-7-5.6c0-2.2,1.7-3.8,5-3.8
		c3.6,0,5.5,1.1,5.5,1.1l-1.1,2.7c0,0-1.7-1.1-4-1.1c-1.2,0-1.8,0.3-1.8,1c0,2,7.2,0.6,7.2,5.5c0,2.2-1.6,3.9-5.5,3.9
		c-3.8,0-5.5-1.4-5.5-1.4L13,494.7z"/>
	<path id="XMLID_105_" class="st1" d="M28.9,497v6h-3.6v-17.3h2.3l0.5,1.8h0.2c0,0,1.1-2.1,4.2-2.1c3.3,0,5.8,2.5,5.8,6.6
		c0,3.9-2.5,6.6-5.7,6.6C29.8,498.6,29,497,28.9,497L28.9,497z M31.7,495.6c1.8,0,3-1.5,3-3.6s-1.2-3.7-3-3.7c-1.7,0-3,1.4-3,3.7
		S30,495.6,31.7,495.6z"/>
	<path id="XMLID_108_" class="st1" d="M46.7,498.6c-3.6,0-6.6-2.5-6.6-6.5s3-6.7,6.6-6.7s6.6,2.6,6.6,6.7
		C53.3,496.1,50.3,498.6,46.7,498.6z M49.8,492c0-2.2-1.3-3.8-3-3.8c-1.8,0-3.1,1.5-3.1,3.8s1.3,3.8,3.1,3.8
		C48.5,495.8,49.8,494.3,49.8,492z"/>
	<path id="XMLID_111_" class="st1" d="M59.5,498.3h-3.6v-12.6h2.2l0.5,1.8h0.2c1-1.4,2.1-2.1,4.1-2.1c3.2,0,5.2,2.2,5.2,5.6v7.3
		h-3.6v-7c0-1.5-0.9-2.8-2.5-2.8c-1.7,0-2.5,1.3-2.5,2.6L59.5,498.3L59.5,498.3z"/>
	<path id="XMLID_113_" class="st1" d="M71.7,494.7c0,0,1.9,1.2,4.1,1.2c1.4,0,1.9-0.5,1.9-1.1c0-2-7-0.8-7-5.6c0-2.2,1.7-3.8,5-3.8
		c3.6,0,5.5,1.1,5.5,1.1l-1.1,2.7c0,0-1.7-1.1-4-1.1c-1.2,0-1.8,0.3-1.8,1c0,2,7.2,0.6,7.2,5.5c0,2.2-1.6,3.9-5.5,3.9
		c-3.8,0-5.5-1.4-5.5-1.4L71.7,494.7z"/>
	<path id="XMLID_115_" class="st1" d="M94.8,497.1c0,0-1.5,1.5-4.7,1.5c-4.2,0-6.7-2.8-6.7-6.7c0-3.8,2.5-6.6,6.2-6.6
		s5.9,2.5,5.9,6.3c0,0.4,0,1,0,1h-8.6c0.2,2.2,1.5,3.1,3.5,3.1s3.2-1,3.2-1L94.8,497.1z M86.8,490.5h5c-0.2-1.5-1-2.4-2.5-2.4
		C88.1,488.1,87.1,488.9,86.8,490.5z"/>
</g>
<g id="XMLID_91_">
	<g>
		<defs>
			<path id="SVGID_1_" d="M196,218.3h-390c-2.8,0-5-2.2-5-5v-30c0-2.8,2.2-5,5-5h390c2.8,0,5,2.2,5,5v30
				C201,216.1,198.8,218.3,196,218.3z M51,363.3v-130c0-2.8-2.2-5-5-5h-240c-2.8,0-5,2.2-5,5v130c0,2.8,2.2,5,5,5H46
				C48.8,368.3,51,366.1,51,363.3z M201,263.3v-30c0-2.8-2.2-5-5-5H66c-2.8,0-5,2.2-5,5v30c0,2.8,2.2,5,5,5h130
				C198.8,268.3,201,266.1,201,263.3z M201,313.3v-30c0-2.8-2.2-5-5-5H66c-2.8,0-5,2.2-5,5v30c0,2.8,2.2,5,5,5h130
				C198.8,318.3,201,316.1,201,313.3z M201,363.3v-30c0-2.8-2.2-5-5-5H66c-2.8,0-5,2.2-5,5v30c0,2.8,2.2,5,5,5h130
				C198.8,368.3,201,366.1,201,363.3z M201,413.3v-30c0-2.8-2.2-5-5-5h-390c-2.8,0-5,2.2-5,5v30c0,2.8,2.2,5,5,5h390
				C198.8,418.3,201,416.1,201,413.3z"/>
		</defs>
		<clipPath id="SVGID_2_">
			<use xlink:href="#SVGID_1_"  style="overflow:visible;"/>
		</clipPath>
		<g id="XMLID_82_" class="st8">
			<g id="XMLID_81_">
				<path id="XMLID_56_" class="st6" d="M197,220.8h-390c-3.6,0-6.5-2.9-6.5-6.5v-30c0-3.6,2.9-6.5,6.5-6.5h390
					c3.6,0,6.5,2.9,6.5,6.5v30C203.5,217.9,200.6,220.8,197,220.8z M-193,180.8c-1.9,0-3.5,1.6-3.5,3.5v30c0,1.9,1.6,3.5,3.5,3.5
					h390c1.9,0,3.5-1.6,3.5-3.5v-30c0-1.9-1.6-3.5-3.5-3.5H-193z"/>
			</g>
			<g id="XMLID_80_">
				<path id="XMLID_53_" class="st6" d="M47,370.8h-240c-3.6,0-6.5-2.9-6.5-6.5v-130c0-3.6,2.9-6.5,6.5-6.5H47
					c3.6,0,6.5,2.9,6.5,6.5v130C53.5,367.9,50.6,370.8,47,370.8z M-193,230.8c-1.9,0-3.5,1.6-3.5,3.5v130c0,1.9,1.6,3.5,3.5,3.5H47
					c1.9,0,3.5-1.6,3.5-3.5v-130c0-1.9-1.6-3.5-3.5-3.5H-193z"/>
			</g>
			<g id="XMLID_79_">
				<path id="XMLID_50_" class="st6" d="M197,270.8H67c-3.6,0-6.5-2.9-6.5-6.5v-30c0-3.6,2.9-6.5,6.5-6.5h130c3.6,0,6.5,2.9,6.5,6.5
					v30C203.5,267.9,200.6,270.8,197,270.8z M67,230.8c-1.9,0-3.5,1.6-3.5,3.5v30c0,1.9,1.6,3.5,3.5,3.5h130c1.9,0,3.5-1.6,3.5-3.5
					v-30c0-1.9-1.6-3.5-3.5-3.5H67z"/>
			</g>
			<g id="XMLID_78_">
				<path id="XMLID_47_" class="st6" d="M197,320.8H67c-3.6,0-6.5-2.9-6.5-6.5v-30c0-3.6,2.9-6.5,6.5-6.5h130c3.6,0,6.5,2.9,6.5,6.5
					v30C203.5,317.9,200.6,320.8,197,320.8z M67,280.8c-1.9,0-3.5,1.6-3.5,3.5v30c0,1.9,1.6,3.5,3.5,3.5h130c1.9,0,3.5-1.6,3.5-3.5
					v-30c0-1.9-1.6-3.5-3.5-3.5H67z"/>
			</g>
			<g id="XMLID_77_">
				<path id="XMLID_44_" class="st6" d="M197,370.8H67c-3.6,0-6.5-2.9-6.5-6.5v-30c0-3.6,2.9-6.5,6.5-6.5h130c3.6,0,6.5,2.9,6.5,6.5
					v30C203.5,367.9,200.6,370.8,197,370.8z M67,330.8c-1.9,0-3.5,1.6-3.5,3.5v30c0,1.9,1.6,3.5,3.5,3.5h130c1.9,0,3.5-1.6,3.5-3.5
					v-30c0-1.9-1.6-3.5-3.5-3.5H67z"/>
			</g>
			<g id="XMLID_76_">
				<path id="XMLID_41_" class="st6" d="M197,420.8h-390c-3.6,0-6.5-2.9-6.5-6.5v-30c0-3.6,2.9-6.5,6.5-6.5h390
					c3.6,0,6.5,2.9,6.5,6.5v30C203.5,417.9,200.6,420.8,197,420.8z M-193,380.8c-1.9,0-3.5,1.6-3.5,3.5v30c0,1.9,1.6,3.5,3.5,3.5
					h390c1.9,0,3.5-1.6,3.5-3.5v-30c0-1.9-1.6-3.5-3.5-3.5H-193z"/>
			</g>
		</g>
	</g>
</g>
<g id="XMLID_92_">
	<g id="XMLID_98_">
		<path id="XMLID_38_" class="st1" d="M196,218.8h-390c-3,0-5.5-2.5-5.5-5.5v-30c0-3,2.5-5.5,5.5-5.5h390c3,0,5.5,2.5,5.5,5.5v30
			C201.5,216.3,199,218.8,196,218.8z M-194,178.8c-2.5,0-4.5,2-4.5,4.5v30c0,2.5,2,4.5,4.5,4.5h390c2.5,0,4.5-2,4.5-4.5v-30
			c0-2.5-2-4.5-4.5-4.5H-194z"/>
	</g>
	<g id="XMLID_97_">
		<path id="XMLID_35_" class="st1" d="M46,368.8h-240c-3,0-5.5-2.5-5.5-5.5v-130c0-3,2.5-5.5,5.5-5.5H46c3,0,5.5,2.5,5.5,5.5v130
			C51.5,366.3,49,368.8,46,368.8z M-194,228.8c-2.5,0-4.5,2-4.5,4.5v130c0,2.5,2,4.5,4.5,4.5H46c2.5,0,4.5-2,4.5-4.5v-130
			c0-2.5-2-4.5-4.5-4.5H-194z"/>
	</g>
	<g id="XMLID_96_">
		<path id="XMLID_32_" class="st1" d="M196,268.8H66c-3,0-5.5-2.5-5.5-5.5v-30c0-3,2.5-5.5,5.5-5.5h130c3,0,5.5,2.5,5.5,5.5v30
			C201.5,266.3,199,268.8,196,268.8z M66,228.8c-2.5,0-4.5,2-4.5,4.5v30c0,2.5,2,4.5,4.5,4.5h130c2.5,0,4.5-2,4.5-4.5v-30
			c0-2.5-2-4.5-4.5-4.5H66z"/>
	</g>
	<g id="XMLID_95_">
		<path id="XMLID_29_" class="st1" d="M196,318.8H66c-3,0-5.5-2.5-5.5-5.5v-30c0-3,2.5-5.5,5.5-5.5h130c3,0,5.5,2.5,5.5,5.5v30
			C201.5,316.3,199,318.8,196,318.8z M66,278.8c-2.5,0-4.5,2-4.5,4.5v30c0,2.5,2,4.5,4.5,4.5h130c2.5,0,4.5-2,4.5-4.5v-30
			c0-2.5-2-4.5-4.5-4.5H66z"/>
	</g>
	<g id="XMLID_94_">
		<path id="XMLID_26_" class="st1" d="M196,368.8H66c-3,0-5.5-2.5-5.5-5.5v-30c0-3,2.5-5.5,5.5-5.5h130c3,0,5.5,2.5,5.5,5.5v30
			C201.5,366.3,199,368.8,196,368.8z M66,328.8c-2.5,0-4.5,2-4.5,4.5v30c0,2.5,2,4.5,4.5,4.5h130c2.5,0,4.5-2,4.5-4.5v-30
			c0-2.5-2-4.5-4.5-4.5H66z"/>
	</g>
	<g id="XMLID_93_">
		<path id="XMLID_23_" class="st1" d="M196,418.8h-390c-3,0-5.5-2.5-5.5-5.5v-30c0-3,2.5-5.5,5.5-5.5h390c3,0,5.5,2.5,5.5,5.5v30
			C201.5,416.3,199,418.8,196,418.8z M-194,378.8c-2.5,0-4.5,2-4.5,4.5v30c0,2.5,2,4.5,4.5,4.5h390c2.5,0,4.5-2,4.5-4.5v-30
			c0-2.5-2-4.5-4.5-4.5H-194z"/>
	</g>
</g>
<g id="XMLID_16_">
	<polygon id="XMLID_18_" class="st7" points="-10,128.3 -10,148.3 -19.1,148.3 0.9,168.1 20.9,148.3 10,148.3 10,128.3 	"/>
	<path id="XMLID_19_" class="st1" d="M0.9,168.3l-21.2-21H-10v-20h21v20h11.2L0.9,168.3z M-17.8,148.3L1,166.8l18.7-18.5H10v-20H-9
		v20H-17.8z"/>
</g>
<g>
	<path d="M65.9,516.9h0.2v3.3h0c0,0,0.4-1.3,2-1.3c1.2,0,2.2,1,2.2,2.4s-1,2.4-2.2,2.4c-1.6,0-2-1.3-2-1.3h0l-0.1,1.2h-0.2V516.9z
		 M68.1,523.5c1.1,0,1.9-0.9,1.9-2.2c0-1.3-0.9-2.2-1.9-2.2c-1,0-2,0.8-2,2.2S67,523.5,68.1,523.5z"/>
	<path d="M73.2,522.8l-1.3,2.4h-0.3l1.4-2.5l-2.1-3.8h0.3l1.9,3.4c0,0.1,0.1,0.2,0.1,0.2h0c0,0,0-0.2,0.1-0.2l1.9-3.4h0.2
		L73.2,522.8z"/>
	<path d="M82.1,523.6H82l0-1h0c-0.3,0.5-1,1.1-1.9,1.1c-1.2,0-1.7-0.6-1.7-1.4c0-0.7,0.5-1.4,2-1.4c0.9,0,1.4,0.2,1.7,0.4v-0.4
		c0-1.1-0.5-1.8-1.7-1.8c-0.8,0-1.5,0.4-1.5,0.4l-0.1-0.2c0,0,0.7-0.4,1.6-0.4c1.3,0,1.9,0.8,1.9,2V523.6z M81.9,522.1v-0.6
		c-0.2-0.1-0.7-0.4-1.7-0.4c-1.3,0-1.8,0.6-1.8,1.2c0,0.6,0.5,1.2,1.5,1.2C81.1,523.5,81.9,522.6,81.9,522.1z"/>
	<path d="M83.8,516.9h0.2v6.7h-0.2V516.9z"/>
	<path d="M89.3,523.6h-0.2l0-1h0c-0.3,0.5-1,1.1-1.9,1.1c-1.2,0-1.7-0.6-1.7-1.4c0-0.7,0.5-1.4,2-1.4c0.9,0,1.4,0.2,1.7,0.4v-0.4
		c0-1.1-0.5-1.8-1.7-1.8c-0.8,0-1.5,0.4-1.5,0.4l-0.1-0.2c0,0,0.7-0.4,1.6-0.4c1.3,0,1.9,0.8,1.9,2V523.6z M89.1,522.1v-0.6
		c-0.2-0.1-0.7-0.4-1.7-0.4c-1.3,0-1.8,0.6-1.8,1.2c0,0.6,0.5,1.2,1.5,1.2C88.3,523.5,89,522.6,89.1,522.1z"/>
	<path d="M90.8,517.2c0-0.1,0.1-0.3,0.3-0.3c0.1,0,0.3,0.1,0.3,0.3c0,0.1-0.1,0.2-0.3,0.2C90.9,517.4,90.8,517.3,90.8,517.2z
		 M91,518.9h0.2v4.6H91V518.9z"/>
	<path d="M93,518.9h0.2l0.1,1h0c0,0,0.4-1.1,1.8-1.1c1.2,0,1.9,0.9,1.9,2.2v2.5h-0.2V521c0-1.1-0.6-2-1.7-2c-1.2,0-1.7,1-1.8,1.6
		v2.9H93V518.9z"/>
	<path d="M98.3,523.1c0,0,0.6,0.4,1.5,0.4c1.1,0,1.5-0.5,1.5-1.1c0-1.5-3.1-0.7-3.1-2.4c0-0.7,0.5-1.2,1.6-1.2c1,0,1.5,0.4,1.5,0.4
		l-0.1,0.2c0,0-0.5-0.4-1.4-0.4c-0.9,0-1.4,0.3-1.4,1c0,1.5,3.1,0.5,3.1,2.4c0,0.7-0.5,1.3-1.7,1.3c-1.1,0-1.6-0.4-1.6-0.4
		L98.3,523.1z"/>
	<path d="M102.5,521.3c0-1.5,1-2.5,2.2-2.5c0.9,0,1.4,0.4,1.4,0.4l-0.1,0.2c0,0-0.5-0.4-1.3-0.4c-1,0-2,0.9-2,2.2c0,1.4,1,2.2,2,2.2
		c0.8,0,1.3-0.4,1.3-0.4l0.1,0.2c0,0-0.5,0.4-1.4,0.4C103.5,523.7,102.5,522.8,102.5,521.3z"/>
	<path d="M107.5,516.9h0.2v3h0c0,0,0.4-1.1,1.8-1.1c1.2,0,1.9,0.9,1.9,2.2v2.5h-0.2V521c0-1.1-0.6-2-1.7-2c-1.2,0-1.7,1-1.8,1.6v2.9
		h-0.2V516.9z"/>
	<path d="M113.1,516.9h0.2v6.7h-0.2V516.9z"/>
	<path d="M118.6,523.2c0,0-0.6,0.5-1.6,0.5c-1.3,0-2.2-0.9-2.2-2.4c0-1.6,0.9-2.5,2.1-2.5c1.2,0,2,0.9,2,2.2v0.1H115v0.2
		c0,1.4,0.9,2.2,2,2.2c1,0,1.5-0.5,1.5-0.5L118.6,523.2z M115,520.9h3.6c0-0.9-0.6-1.9-1.7-1.9C116,519,115.2,519.7,115,520.9z"/>
	<path d="M119.9,523.1c0,0,0.6,0.4,1.5,0.4c1.1,0,1.5-0.5,1.5-1.1c0-1.5-3.1-0.7-3.1-2.4c0-0.7,0.5-1.2,1.6-1.2c1,0,1.5,0.4,1.5,0.4
		l-0.1,0.2c0,0-0.5-0.4-1.4-0.4c-0.9,0-1.4,0.3-1.4,1c0,1.5,3.1,0.5,3.1,2.4c0,0.7-0.5,1.3-1.7,1.3c-1.1,0-1.6-0.4-1.6-0.4
		L119.9,523.1z"/>
	<path d="M124.2,523.1c0,0,0.6,0.4,1.5,0.4c1.1,0,1.5-0.5,1.5-1.1c0-1.5-3.1-0.7-3.1-2.4c0-0.7,0.5-1.2,1.6-1.2c1,0,1.5,0.4,1.5,0.4
		l-0.1,0.2c0,0-0.5-0.4-1.4-0.4c-0.9,0-1.4,0.3-1.4,1c0,1.5,3.1,0.5,3.1,2.4c0,0.7-0.5,1.3-1.7,1.3c-1.1,0-1.6-0.4-1.6-0.4
		L124.2,523.1z"/>
	<path d="M132.2,523.2c0,0-0.6,0.5-1.6,0.5c-1.3,0-2.2-0.9-2.2-2.4c0-1.6,0.9-2.5,2.1-2.5c1.2,0,2,0.9,2,2.2v0.1h-3.8v0.2
		c0,1.4,0.9,2.2,2,2.2c1,0,1.5-0.5,1.5-0.5L132.2,523.2z M128.7,520.9h3.6c0-0.9-0.6-1.9-1.7-1.9C129.6,519,128.8,519.7,128.7,520.9
		z"/>
	<path d="M135.7,519.1h-0.2c-0.9,0-1.4,0.8-1.5,1.6v2.8h-0.2v-4.6h0.2l0.1,1h0c0,0,0.3-1,1.4-1h0.2V519.1z"/>
	<path d="M136.3,523.4c0-0.2,0.1-0.3,0.3-0.3c0.2,0,0.3,0.1,0.3,0.3c0,0.2-0.1,0.3-0.3,0.3C136.5,523.6,136.3,523.5,136.3,523.4z"/>
	<path d="M138.2,521.3c0-1.5,1-2.5,2.2-2.5c0.9,0,1.4,0.4,1.4,0.4l-0.1,0.2c0,0-0.5-0.4-1.3-0.4c-1,0-2,0.9-2,2.2c0,1.4,1,2.2,2,2.2
		c0.8,0,1.3-0.4,1.3-0.4l0.1,0.2c0,0-0.5,0.4-1.4,0.4C139.2,523.7,138.2,522.8,138.2,521.3z"/>
	<path d="M144.9,523.7c-1.2,0-2.2-0.9-2.2-2.4c0-1.5,1-2.4,2.2-2.4c1.2,0,2.2,1,2.2,2.4C147.2,522.8,146.2,523.7,144.9,523.7z
		 M146.9,521.3c0-1.4-1-2.2-2-2.2c-1,0-2,0.9-2,2.2c0,1.4,1,2.2,2,2.2C146,523.5,146.9,522.7,146.9,521.3z"/>
	<path d="M148.6,518.9h0.2l0.1,1h0c0,0.1,0.4-1.1,1.8-1.1c1,0,1.6,0.5,1.8,1.3h0c0,0,0.2-1.3,1.8-1.3c1.2,0,1.9,0.9,1.9,2.2v2.5
		h-0.2V521c0-1.1-0.5-2-1.7-2c-1.2,0-1.7,1.2-1.7,1.8v2.7h-0.2v-2.8c0-1-0.6-1.7-1.7-1.7c-1.2,0-1.7,1-1.8,1.6v2.9h-0.2V518.9z"/>
	<path d="M168.2,522.8c0,0-0.7,0.9-2.1,0.9c-1.9,0-3.2-1.5-3.2-3.4c0-2,1.4-3.5,3.2-3.5c1.4,0,2.1,0.9,2.1,0.9l-0.1,0.2
		c0,0-0.7-0.8-2-0.8c-1.8,0-3,1.5-3,3.2c0,1.7,1.2,3.2,3,3.2c1.3,0,2-0.9,2-0.9L168.2,522.8z"/>
	<path d="M174.4,522.8c0,0-0.7,0.9-2.1,0.9c-1.9,0-3.2-1.5-3.2-3.4c0-2,1.4-3.5,3.2-3.5c1.4,0,2.1,0.9,2.1,0.9l-0.1,0.2
		c0,0-0.7-0.8-2-0.8c-1.8,0-3,1.5-3,3.2c0,1.7,1.2,3.2,3,3.2c1.3,0,2-0.9,2-0.9L174.4,522.8z"/>
	<path d="M175.5,520.9h2.9v0.2h-2.9V520.9z"/>
	<path d="M182.9,523.6h-2.7V517h2.5c1.3,0,2.1,0.6,2.1,1.8c0,0.8-0.4,1.3-1.1,1.5v0c0.8,0.2,1.4,0.7,1.4,1.6
		C185.1,523,184.2,523.6,182.9,523.6z M182.7,517.2h-2.3v3h2.3c1.2,0,1.9-0.5,1.9-1.4C184.6,517.7,183.8,517.2,182.7,517.2z
		 M183,520.4h-2.5v3h2.5c1.1,0,1.9-0.5,1.9-1.5C184.9,520.9,184,520.4,183,520.4z"/>
	<path d="M190.7,517h0.3l-2.5,4v2.6h-0.2V521l-2.5-4h0.3l2.2,3.5l0.2,0.3h0l0.2-0.3L190.7,517z"/>
	<path d="M191.4,520.9h2.9v0.2h-2.9V520.9z"/>
	<path d="M195.6,522.8c0,0,0.7,0.7,2,0.7c1.4,0,2.1-0.6,2.1-1.5c0-1-1-1.4-2-1.7c-1.1-0.3-2.2-0.6-2.2-1.8c0-1.1,0.9-1.7,2.2-1.7
		c1.5,0,2.1,0.6,2.1,0.6l-0.1,0.2c0,0-0.6-0.6-1.9-0.6c-1,0-2,0.5-2,1.5c0,0.9,1,1.2,2,1.6c1.1,0.3,2.2,0.7,2.2,1.9
		c0,1-0.7,1.7-2.3,1.7c-1.4,0-2.1-0.7-2.1-0.7L195.6,522.8z"/>
	<path d="M206.2,523.6H206l-0.8-2h-3.6l-0.8,2h-0.2l2.7-6.6h0.3L206.2,523.6z M201.7,521.4h3.4l-1.7-4.2L201.7,521.4z"/>
</g>
</svg>
